<svg viewBox="77.602 158.0629 213.2986 48.9984" xmlns="http://www.w3.org/2000/svg">
  <defs>
    <clipPath id="clip0_17_93">
      <rect width="109" height="49" fill="white" transform="translate(0 0.489746)"/>
    </clipPath>
  </defs>
  <g clip-path="url(#clip0_17_93)" transform="matrix(1, 0, 0, 1, 77.60202026367188, 157.57315063476562)">
    <path d="M12.8557 5.68703L11.6313 5.56183H10.616C7.35804 5.56183 5.28561 6.21986 4.44349 7.54174C3.6402 8.4065 3.21616 10.0137 3.21616 12.3634V13.8018H0V17.846H3.29977V35.543H9.17665V17.8519H13.0319V13.8047H9.17964V11.9558C9.17068 11.519 9.31999 11.0969 9.60368 10.7591C10.0337 10.3631 10.625 10.1797 11.2103 10.2641C11.7597 10.2554 12.3122 10.2845 12.8587 10.3457V5.68703H12.8557Z" style="fill: rgb(37, 126, 255);"/>
    <path d="M15.391 5.85007V35.543H21.2679V5.85007H15.391Z" style="fill: rgb(37, 126, 255);"/>
    <path d="M27.6106 39.7882L26.8461 39.7445V44.3245C27.527 44.3624 27.9898 44.406 28.2855 44.406H29.5486C32.1317 44.406 33.8667 43.9111 34.7506 42.9211C35.5987 41.9311 36.7813 39.3369 38.2594 35.1674L46.0057 13.6038H39.7406L35.094 29.7692L30.1877 13.6038H23.6329L31.9227 36.4893C31.8898 36.9639 31.7614 37.4268 31.5434 37.849C31.3762 38.4051 31.0328 38.8943 30.5669 39.2524C30.1757 39.5116 29.7248 39.6804 29.256 39.7416C28.7095 39.7998 28.1571 39.8144 27.6076 39.7853L27.6106 39.7882Z" style="fill: rgb(37, 126, 255);"/>
    <path fill-rule="evenodd" clip-rule="evenodd" d="M71.1287 0.489747C76.7369 0.481012 82.1867 2.31243 86.5973 5.68703H85.5522C75.8081 -1.45232 61.97 0.463542 54.6478 9.96714C51.778 13.694 50.2252 18.2275 50.2222 22.8861C50.2222 24.3827 50.3835 25.8734 50.7 27.338C50.4074 27.2856 50.1087 27.2565 49.8131 27.2565C48.5022 27.2565 47.239 27.7398 46.2804 28.6133C44.2408 15.2197 53.7221 2.74627 67.4617 0.754706C68.6771 0.580008 69.9014 0.489747 71.1287 0.489747ZM54.1252 35.1033C61.0383 44.8894 74.7809 47.3584 84.8176 40.6151C85.376 40.2395 85.9135 39.8406 86.4331 39.4184C86.0598 40.2365 86.2241 41.1916 86.8512 41.8467C87.4962 42.3446 88.3771 42.4407 89.1207 42.0913C79.4364 51.7783 63.5318 51.9763 53.5966 42.5338C51.9781 40.9936 50.5776 39.2495 49.4398 37.3453C49.5623 37.354 49.6907 37.3628 49.8191 37.3628C51.5541 37.3628 53.1726 36.5155 54.1282 35.1062V35.1004L54.1252 35.1033Z" style="fill: rgb(37, 126, 255);"/>
    <path d="M49.8131 35.5401C51.6438 35.5401 53.1278 34.0931 53.1278 32.3082C53.1278 30.5232 51.6438 29.0762 49.8131 29.0762C47.9825 29.0762 46.4984 30.5232 46.4984 32.3082C46.4984 34.0931 47.9825 35.5401 49.8131 35.5401Z" style="fill: rgb(255, 185, 2);"/>
    <path d="M81.1774 33.6825C82.566 32.3548 83.3036 30.5117 83.205 28.6191V16.4019C83.1991 14.8587 81.918 13.6096 80.3353 13.6038C78.7496 13.6038 77.4625 14.8587 77.4596 16.4077V28.4706C77.4596 29.9701 76.7518 30.7184 75.3393 30.7184C73.5566 30.7184 73.1833 29.6498 73.1833 28.194C73.1773 26.7557 71.9858 25.5939 70.5106 25.5881C69.0384 25.5939 67.8439 26.7586 67.838 28.194C67.838 30.3341 68.1814 32.1597 69.9014 33.6854C71.4573 34.9898 73.4729 35.6536 75.5245 35.5401C77.585 35.6478 79.6096 34.984 81.1804 33.6854L81.1774 33.6825Z" style="fill: rgb(255, 185, 2);"/>
    <path fill-rule="evenodd" clip-rule="evenodd" d="M60.7516 18.5245L60.668 18.5972H56.6217C55.2092 18.5943 54.0655 17.4763 54.0595 16.0991C54.0655 14.7218 55.2092 13.6096 56.6217 13.6067H70.6241C72.0336 13.6125 73.1743 14.7248 73.1803 16.0991C73.1773 17.4763 72.0336 18.5914 70.6241 18.5972H66.5777L66.4941 18.5594V32.742C66.4882 34.2881 65.2041 35.5401 63.6184 35.5459C62.0327 35.5401 60.7516 34.2881 60.7486 32.742V18.5245H60.7516Z" style="fill: rgb(255, 185, 0);"/>
    <path d="M89.8464 36.07C88.4249 35.971 84.8833 35.6624 84.6981 35.6682C84.3846 36.0088 83.6768 36.7688 83.4141 37.0599C85.1072 37.3831 86.7795 37.7966 88.4249 38.3032C87.8396 39.3922 87.4037 40.5219 87.7769 40.8422C88.1502 41.1624 89.2491 40.6209 90.2973 39.9454C90.9871 41.4856 91.5873 43.0637 92.095 44.6681L93.3761 43.2763C93.3671 43.0958 92.6773 39.6921 92.4235 38.3236L92.4504 38.2974C92.4504 38.2974 92.4534 38.2887 92.4593 38.2857C92.4653 38.2828 92.4683 38.277 92.4713 38.277L98.9036 31.3065C99.3814 31.7316 100.047 32.3314 100.349 32.5935C100.564 33.0535 104.452 40.9907 104.969 41.8787C105.163 41.672 105.533 41.2673 105.936 40.8334C105.948 40.6966 105.632 38.8652 105.267 36.8561C105.503 36.6611 105.727 36.4485 105.936 36.2243C106.811 35.2722 107.274 34.2822 106.966 34.0144C106.674 33.7552 105.796 34.2415 104.957 35.1033C104.718 33.7698 104.497 32.5498 104.386 31.9093C104.583 31.7404 104.769 31.5569 104.942 31.3677C105.82 30.4156 106.28 29.4314 105.975 29.1578C105.688 28.9074 104.834 29.3732 104.01 30.203C103.714 29.1083 103.296 27.6641 103.045 26.8139L107.432 22.0592C107.477 22.0097 107.513 21.9544 107.543 21.8961C108.836 20.2889 109.37 18.6788 108.734 18.1255C108.098 17.5723 106.512 18.2537 105.01 19.6804C104.954 19.7124 104.903 19.7532 104.861 19.7997L100.471 24.5515C99.5785 24.406 98.0585 24.1439 96.9118 23.9809C97.6763 23.0928 98.0615 22.2164 97.7718 21.966C97.4642 21.6981 96.5057 22.2513 95.6247 23.1976C95.4426 23.3985 95.2753 23.6053 95.129 23.7974C94.4661 23.7596 93.1999 23.678 91.8143 23.582C92.6056 22.6794 93.0058 21.7738 92.7161 21.5205C92.4115 21.2497 91.45 21.8 90.575 22.7521C90.369 22.9763 90.1749 23.2151 89.9957 23.4626C87.9083 23.3286 86.0091 23.2122 85.8717 23.2384C85.4686 23.6722 85.0953 24.0769 84.9012 24.2895C85.8658 24.6971 94.3705 27.6291 94.8602 27.7864C95.1589 28.0484 95.8397 28.6337 96.3265 29.0529L89.8942 36.0234L89.8852 36.0321L89.8733 36.0438L89.8494 36.0671L89.8464 36.07Z" style="fill: rgb(37, 126, 255);"/>
  </g>
  <path d="M 216.746 102.439 L 225.245 102.439 L 225.245 104.482 L 219.241 104.482 L 219.241 106.36 L 224.724 106.36 L 224.724 108.402 L 219.241 108.402 L 219.241 112.391 L 216.746 112.391 Z M 227.774 103.611 Q 227.774 103.611 228.583 102.895 Q 229.391 102.179 232.119 102.179 Q 234.847 102.179 236.457 103.611 Q 238.068 105.044 238.068 107.415 Q 238.068 109.787 236.457 111.219 Q 234.847 112.651 232.119 112.651 Q 229.391 112.651 227.774 111.219 Q 226.156 109.787 226.156 107.415 Q 226.156 105.044 227.774 103.611 Z M 234.47 105.071 Q 234.47 105.071 234.041 104.646 Q 233.613 104.221 232.119 104.221 Q 230.625 104.221 229.761 105.071 Q 228.898 105.921 228.898 107.415 Q 228.898 108.909 229.761 109.759 Q 230.625 110.609 232.119 110.609 Q 233.613 110.609 234.47 109.759 Q 235.327 108.909 235.327 107.415 Q 235.327 105.921 234.47 105.071 Z M 239.753 112.391 L 239.753 102.439 L 245.867 102.439 Q 247.841 102.439 248.786 103.077 Q 249.732 103.714 249.732 105.112 Q 249.732 106.003 249.3 106.668 Q 248.869 107.333 248.087 107.635 Q 248.841 107.95 249.067 108.388 Q 249.294 108.827 249.335 109.759 Q 249.403 111.322 249.54 111.76 Q 249.664 112.144 249.869 112.391 L 247.073 112.391 Q 246.867 112.062 246.867 111.623 L 246.867 110.938 Q 246.867 109.636 246.538 109.183 Q 246.209 108.731 245.127 108.731 L 242.248 108.731 L 242.248 112.391 Z M 242.248 104.482 L 242.248 106.689 L 245.072 106.689 Q 246.127 106.689 246.614 106.435 Q 247.1 106.182 247.1 105.51 Q 247.1 104.852 246.634 104.667 Q 246.168 104.482 244.962 104.482 Z" transform="matrix(1.057558, 0, 0, 1.057558, -30.091354, 59.961842)" style="fill: rgb(36, 126, 255); text-transform: uppercase;"/>
  <path transform="matrix(1.057558, 0, 0, 1.057558, -30.091354, 59.961842)" style="fill: rgb(36, 126, 255); text-transform: uppercase;"/>
  <path d="M 216.746 112.391 L 216.746 102.439 L 223.175 102.439 Q 226.533 102.439 226.533 104.92 Q 226.533 106.415 225.176 107.1 Q 226.903 107.648 226.903 109.554 Q 226.903 110.856 226.054 111.623 Q 225.204 112.391 223.682 112.391 Z M 219.241 108.169 L 219.241 110.349 L 222.558 110.349 Q 223.518 110.349 223.908 110.157 Q 224.299 109.965 224.299 109.321 Q 224.299 108.69 223.888 108.43 Q 223.477 108.169 222.558 108.169 Z M 219.241 104.482 L 219.241 106.428 L 222.188 106.428 Q 223.134 106.428 223.531 106.216 Q 223.929 106.003 223.929 105.4 Q 223.929 104.852 223.531 104.667 Q 223.134 104.482 222.188 104.482 Z M 228.582 102.439 L 231.077 102.439 L 231.077 107.785 Q 231.077 109.252 231.694 109.931 Q 232.311 110.609 233.681 110.609 Q 235.093 110.609 235.696 109.91 Q 236.3 109.211 236.3 107.909 L 236.3 102.439 L 238.794 102.439 L 238.794 108.046 Q 238.794 110.321 237.492 111.486 Q 236.19 112.651 233.681 112.651 Q 231.173 112.651 229.878 111.473 Q 228.582 110.294 228.582 108.032 Z M 250.591 105.496 L 248.11 105.496 Q 247.945 104.016 245.67 104.016 Q 244.601 104.016 244.032 104.317 Q 243.463 104.619 243.463 105.153 Q 243.463 105.674 243.881 105.853 Q 244.299 106.031 245.478 106.154 L 247.328 106.346 Q 249.22 106.552 250.125 107.258 Q 251.029 107.964 251.029 109.266 Q 251.029 110.911 249.686 111.781 Q 248.343 112.651 245.738 112.651 Q 240.598 112.651 240.598 108.95 L 243.148 108.95 Q 243.134 109.855 243.867 110.307 Q 244.601 110.76 246.04 110.76 Q 247.136 110.76 247.726 110.438 Q 248.315 110.116 248.315 109.54 Q 248.315 108.992 247.877 108.779 Q 247.438 108.567 246.355 108.457 L 244.601 108.279 Q 242.682 108.087 241.756 107.408 Q 240.831 106.73 240.831 105.482 Q 240.831 104.043 242.126 103.111 Q 243.422 102.179 245.629 102.179 Q 248 102.179 249.295 103.049 Q 250.591 103.92 250.591 105.496 Z M 255.374 102.439 L 255.374 112.391 L 252.879 112.391 L 252.879 102.439 Z M 257.633 102.439 L 260.703 102.439 L 265.679 109.458 L 265.679 102.439 L 268.078 102.439 L 268.078 112.391 L 265.049 112.391 L 260.032 105.304 L 260.032 112.391 L 257.633 112.391 Z M 270.296 102.439 L 279.138 102.439 L 279.138 104.482 L 272.791 104.482 L 272.791 106.14 L 278.438 106.14 L 278.438 108.183 L 272.791 108.183 L 272.791 110.349 L 279.138 110.349 L 279.138 112.391 L 270.296 112.391 Z M 290.561 105.496 L 288.08 105.496 Q 287.916 104.016 285.64 104.016 Q 284.571 104.016 284.002 104.317 Q 283.433 104.619 283.433 105.153 Q 283.433 105.674 283.851 105.853 Q 284.269 106.031 285.448 106.154 L 287.299 106.346 Q 289.19 106.552 290.095 107.258 Q 291 107.964 291 109.266 Q 291 110.911 289.656 111.781 Q 288.313 112.651 285.709 112.651 Q 280.568 112.651 280.568 108.95 L 283.118 108.95 Q 283.104 109.855 283.838 110.307 Q 284.571 110.76 286.01 110.76 Q 287.107 110.76 287.696 110.438 Q 288.286 110.116 288.286 109.54 Q 288.286 108.992 287.847 108.779 Q 287.408 108.567 286.326 108.457 L 284.571 108.279 Q 282.652 108.087 281.727 107.408 Q 280.801 106.73 280.801 105.482 Q 280.801 104.043 282.097 103.111 Q 283.392 102.179 285.599 102.179 Q 287.97 102.179 289.266 103.049 Q 290.561 103.92 290.561 105.496 Z M 302.39 105.496 L 299.909 105.496 Q 299.744 104.016 297.469 104.016 Q 296.4 104.016 295.831 104.317 Q 295.262 104.619 295.262 105.153 Q 295.262 105.674 295.68 105.853 Q 296.098 106.031 297.277 106.154 L 299.127 106.346 Q 301.019 106.552 301.924 107.258 Q 302.828 107.964 302.828 109.266 Q 302.828 110.911 301.485 111.781 Q 300.142 112.651 297.537 112.651 Q 292.397 112.651 292.397 108.95 L 294.947 108.95 Q 294.933 109.855 295.666 110.307 Q 296.4 110.76 297.839 110.76 Q 298.935 110.76 299.525 110.438 Q 300.114 110.116 300.114 109.54 Q 300.114 108.992 299.676 108.779 Q 299.237 108.567 298.154 108.457 L 296.4 108.279 Q 294.481 108.087 293.555 107.408 Q 292.63 106.73 292.63 105.482 Q 292.63 104.043 293.925 103.111 Q 295.221 102.179 297.428 102.179 Q 299.799 102.179 301.094 103.049 Q 302.39 103.92 302.39 105.496 Z" transform="matrix(1.057558, 0, 0, 1.057558, -30.104126, 78.000595)" style="fill: rgb(36, 126, 255); text-transform: uppercase;"/>
  <path transform="matrix(1.057558, 0, 0, 1.057558, -30.104126, 78.000595)" style="fill: rgb(36, 126, 255); text-transform: uppercase;"/>
</svg>