<?xml version="1.0" encoding="utf-8"?>
<svg viewBox="77.602 155.3474 120.7637 54.7832" xmlns="http://www.w3.org/2000/svg">
  <defs>
    <clipPath id="clip0_17_93">
      <rect width="109" height="49" fill="white" transform="translate(0 0.489746)"/>
    </clipPath>
  </defs>
  <g clip-path="url(#clip0_17_93)" transform="matrix(0.9999999999999999, 0, 0, 0.9999999999999999, 77.60202026367186, 157.57315063476562)">
    <path d="M12.8557 5.68703L11.6313 5.56183H10.616C7.35804 5.56183 5.28561 6.21986 4.44349 7.54174C3.6402 8.4065 3.21616 10.0137 3.21616 12.3634V13.8018H0V17.846H3.29977V35.543H9.17665V17.8519H13.0319V13.8047H9.17964V11.9558C9.17068 11.519 9.31999 11.0969 9.60368 10.7591C10.0337 10.3631 10.625 10.1797 11.2103 10.2641C11.7597 10.2554 12.3122 10.2845 12.8587 10.3457V5.68703H12.8557Z" style="fill: rgb(37, 126, 255);"/>
    <path d="M15.391 5.85007V35.543H21.2679V5.85007H15.391Z" style="fill: rgb(37, 126, 255);"/>
    <path d="M27.6106 39.7882L26.8461 39.7445V44.3245C27.527 44.3624 27.9898 44.406 28.2855 44.406H29.5486C32.1317 44.406 33.8667 43.9111 34.7506 42.9211C35.5987 41.9311 36.7813 39.3369 38.2594 35.1674L46.0057 13.6038H39.7406L35.094 29.7692L30.1877 13.6038H23.6329L31.9227 36.4893C31.8898 36.9639 31.7614 37.4268 31.5434 37.849C31.3762 38.4051 31.0328 38.8943 30.5669 39.2524C30.1757 39.5116 29.7248 39.6804 29.256 39.7416C28.7095 39.7998 28.1571 39.8144 27.6076 39.7853L27.6106 39.7882Z" style="fill: rgb(37, 126, 255);"/>
  </g>
  <path d="M 171.424 183.784 L 176.583 185.274 L 182.255 181.155 L 174.115 181.388 C 174.036 181.392 173.958 181.418 173.89 181.46 L 171.315 182.941 C 171.007 183.112 171 183.552 171.303 183.734 C 171.34 183.756 171.381 183.774 171.424 183.784" class="clr-i-solid clr-i-solid-path-1" style="fill: rgb(255, 185, 2); transform-origin: 176.667px 183.214px;" transform="matrix(0.99869209528, -0.051139008254, 0.051139008254, 0.99869209528, 0.000010006973, 0.000008970473)"/>
  <path d="M 196.674 178.521 L 191.02 177.3 C 190.059 177.093 189.053 177.312 188.265 177.902 L 171.189 190.313 L 167.088 190.133 C 166.225 190.105 165.653 191.02 166.061 191.782 C 166.13 191.916 166.226 192.032 166.343 192.126 L 170.336 195.293 C 170.47 195.401 170.65 195.433 170.811 195.373 C 171.951 194.934 176.196 192.682 181.212 189.927 L 182.217 200.255 C 182.253 200.634 182.686 200.832 182.996 200.611 C 183.005 200.604 183.015 200.596 183.025 200.588 L 185.268 198.721 C 185.391 198.618 185.475 198.475 185.502 198.318 L 187.628 186.391 C 191.217 184.399 194.646 182.47 197.06 181.105 C 198.001 180.595 198.034 179.256 197.121 178.697 C 196.984 178.614 196.832 178.553 196.674 178.521" class="clr-i-solid clr-i-solid-path-2" style="fill: rgb(255, 185, 2); transform-origin: 181.856px 188.964px;" transform="matrix(0.99869209528, -0.051139008254, 0.051139008254, 0.99869209528, 0.000010907535, 0.000011967247)"/>
  <path d="M 141.471 175.289 L 141.076 177.618 Q 140.039 177.1 139.265 176.854 Q 138.492 176.608 137.56 176.608 Q 136.743 176.608 136.211 177.06 Q 135.679 177.513 135.679 178.058 Q 135.679 178.436 135.881 178.717 Q 136.084 178.998 136.672 179.271 Q 137.261 179.543 138.413 179.904 Q 140.17 180.448 141.098 181.305 Q 142.025 182.162 142.025 183.551 Q 142.025 184.808 141.383 185.757 Q 140.742 186.706 139.669 187.238 Q 138.597 187.77 137.296 187.77 Q 135.917 187.77 134.73 187.436 Q 133.544 187.102 132.814 186.583 L 133.253 184.166 Q 134.194 184.922 135.213 185.269 Q 136.233 185.616 137.296 185.616 Q 137.868 185.616 138.373 185.41 Q 138.878 185.203 139.19 184.808 Q 139.502 184.412 139.502 183.859 Q 139.502 183.489 139.283 183.173 Q 139.063 182.857 138.421 182.527 Q 137.78 182.197 136.505 181.793 Q 135.126 181.354 134.405 180.826 Q 133.684 180.299 133.425 179.657 Q 133.166 179.016 133.166 178.234 Q 133.166 177.645 133.42 176.994 Q 133.675 176.344 134.22 175.777 Q 134.765 175.21 135.613 174.854 Q 136.461 174.498 137.648 174.498 Q 138.773 174.498 139.652 174.687 Q 140.531 174.876 141.471 175.289 Z M 143.729 183.094 Q 143.729 181.582 144.331 180.536 Q 144.933 179.49 145.935 178.95 Q 146.937 178.409 148.123 178.409 Q 149.371 178.409 150.32 178.95 Q 151.27 179.49 151.806 180.536 Q 152.342 181.582 152.342 183.094 Q 152.342 184.606 151.74 185.647 Q 151.138 186.689 150.136 187.229 Q 149.134 187.77 147.947 187.77 Q 146.708 187.77 145.759 187.229 Q 144.81 186.689 144.269 185.647 Q 143.729 184.606 143.729 183.094 Z M 146.19 183.094 Q 146.19 184.351 146.66 185.071 Q 147.13 185.792 148.035 185.792 Q 148.888 185.792 149.384 185.071 Q 149.881 184.351 149.881 183.094 Q 149.881 181.828 149.411 181.108 Q 148.941 180.387 148.035 180.387 Q 147.183 180.387 146.686 181.108 Q 146.19 181.828 146.19 183.094 Z M 155.155 177.267 Q 155.155 175.324 156.078 174.318 Q 157.001 173.312 158.627 173.312 Q 159.119 173.312 159.734 173.492 Q 160.349 173.672 160.736 173.927 L 160.235 175.931 Q 159.954 175.667 159.554 175.513 Q 159.154 175.36 158.829 175.36 Q 158.196 175.36 157.906 175.825 Q 157.616 176.291 157.616 177.363 Q 157.616 178.822 157.616 180.281 Q 157.616 181.74 157.616 183.208 Q 157.616 184.483 157.677 185.669 Q 157.739 186.856 157.879 187.55 L 155.155 187.55 Q 155.155 184.975 155.155 182.404 Q 155.155 179.833 155.155 177.267 Z M 153.397 180.475 L 153.397 178.717 L 159.857 178.717 L 159.857 180.475 Z M 167.372 185.08 L 167.372 187.049 Q 166.748 187.445 166.168 187.607 Q 165.588 187.77 165.113 187.77 Q 164.287 187.77 163.602 187.546 Q 162.916 187.321 162.507 186.755 Q 162.099 186.188 162.099 185.177 Q 162.099 182.865 162.099 180.558 Q 162.099 178.251 162.099 175.948 L 164.56 175.948 Q 164.56 177.829 164.56 179.715 Q 164.56 181.6 164.56 183.489 Q 164.56 184.483 164.674 184.966 Q 164.788 185.449 165.034 185.594 Q 165.28 185.739 165.676 185.739 Q 166.309 185.739 167.372 185.08 Z M 167.24 180.475 L 160.429 180.475 L 160.429 178.717 L 167.24 178.717 Z" style="fill: rgb(37, 126, 255);"/>
  <path fill-rule="evenodd" clip-rule="evenodd" d="M 148.747 158.24 C 154.355 158.231 159.805 160.063 164.216 163.437 L 163.171 163.437 C 153.427 156.298 139.589 158.214 132.266 167.717 C 129.397 171.444 127.844 175.978 127.841 180.636 C 127.841 182.133 128.002 183.624 128.319 185.088 C 128.026 185.036 127.727 185.007 127.432 185.007 C 126.121 185.007 124.858 185.49 123.899 186.363 C 121.859 172.97 131.341 160.496 145.08 158.505 C 146.296 158.33 147.52 158.24 148.747 158.24 Z M 131.744 192.853 C 138.657 202.64 152.399 205.109 162.436 198.365 C 162.995 197.99 163.532 197.591 164.052 197.169 C 163.678 197.987 163.843 198.942 164.47 199.597 C 165.115 200.095 165.996 200.191 166.739 199.841 C 157.055 209.528 141.15 209.726 131.215 200.284 C 129.597 198.744 128.196 197 127.058 195.095 C 127.181 195.104 127.309 195.113 127.438 195.113 C 129.173 195.113 130.791 194.266 131.747 192.856 L 131.747 192.851 L 131.744 192.853 Z" style="fill: rgb(37, 126, 255); transform-origin: 145.181px 182.739px;" transform="matrix(0.989221096039, -0.146428003907, 0.146428003907, 0.989221096039, 0.000007120702, 0.000012438437)"/>
  <path d="M 128.693 195.694 C 130.524 195.694 132.008 194.247 132.008 192.462 C 132.008 190.677 130.524 189.23 128.693 189.23 C 126.862 189.23 125.378 190.677 125.378 192.462 C 125.378 194.247 126.862 195.694 128.693 195.694 Z" style="fill: rgb(255, 185, 2);" transform="matrix(0.9999999999999999, 0, 0, 0.9999999999999999, 0, -1.7763568394002505e-15)"/>
</svg>