<svg width="135" height="56" viewBox="0 0 135 56" fill="none" xmlns="http://www.w3.org/2000/svg">
<g id="Group 3">
<path id="Vector" d="M36.5184 21.2226C37.745 20.5299 39.0124 19.905 40.1811 19.134C42.3877 17.6808 43.9531 15.7277 44.6757 13.1624C44.7315 12.9633 45.0489 12.6943 45.244 12.6943C51.5871 12.6731 57.9303 12.6794 64.2756 12.6858C64.3463 12.6858 64.4171 12.7409 64.4878 12.7684C63.9818 14.0924 62.7895 14.9185 61.3613 14.9206C56.9439 14.9249 52.5285 14.9143 48.1111 14.9397C47.7401 14.9418 47.0453 15.2002 47.0539 15.2977C47.1032 15.9353 47.68 15.7913 48.1025 15.7913C52.224 15.8018 56.3477 15.7997 60.4692 15.7997C60.7502 15.7997 61.0332 15.7997 61.3506 15.7997C60.7566 17.3037 59.3005 18.1214 58.1297 18.1045C54.2226 18.0473 50.3134 18.0748 46.4063 18.0981C46.061 18.1002 45.7158 18.3184 45.3705 18.437C45.7201 18.5896 46.0675 18.8713 46.417 18.8755C49.9767 18.9073 53.5364 18.8946 57.0961 18.8925C57.4628 18.8925 57.8316 18.8925 58.2283 18.8925C57.7995 20.1592 56.4592 21.1188 55.0503 21.1315C51.6772 21.1612 48.3062 21.1379 44.9331 21.1591C44.5042 21.1612 43.9102 20.9028 43.7665 21.5764C43.7558 21.6294 44.502 21.9577 44.8988 21.9619C48.0296 21.9958 51.1604 21.981 54.2934 21.9831C54.5486 21.9831 54.8037 21.9831 55.2283 21.9831C54.3491 23.396 53.2769 24.2285 51.7308 24.2434C48.1454 24.2773 44.5557 24.2942 40.9702 24.237C38.8751 24.2031 37.0996 22.9173 36.5142 21.2248L36.5184 21.2226Z" fill="white"/>
<path id="Vector_2" d="M3.74123 15.7928C4.29234 15.7928 4.6333 15.7928 4.97426 15.7928C8.88135 15.7928 12.7884 15.7928 16.6955 15.7928C16.8285 15.7928 16.9765 15.8289 17.0944 15.7865C17.4804 15.6467 17.8535 15.4772 18.2309 15.3205C17.8664 15.187 17.504 14.937 17.1394 14.9349C12.8313 14.9074 8.52109 14.8693 4.213 14.9413C2.49319 14.9709 1.48317 14.1342 0.612549 12.7276C0.923487 12.7022 1.15079 12.6662 1.3781 12.6662C7.48106 12.6641 13.5819 12.6641 19.6848 12.6662C20.0816 12.6662 20.4418 12.6027 20.5941 13.1682C21.5011 16.5194 23.8471 18.6547 26.8386 20.2201C27.4497 20.54 28.0802 20.8239 28.7792 21.1628C28.0694 22.7918 26.8364 23.7217 25.1659 24.1306C24.8057 24.2174 24.424 24.2428 24.0508 24.245C20.5984 24.2534 17.1459 24.2534 13.6934 24.2492C12.0787 24.2492 10.9378 23.4739 10.035 22.025C10.4553 22.0038 10.7363 21.9805 11.015 21.9784C14.0665 21.9741 17.1158 21.9762 20.1673 21.9741C20.2745 21.9741 20.3925 22.0038 20.4868 21.9699C20.8321 21.8428 21.1688 21.6945 21.5097 21.5547C21.1773 21.4212 20.8471 21.1734 20.5147 21.1713C17.1973 21.1416 13.8778 21.1353 10.5583 21.1607C8.90923 21.1734 7.80486 20.3621 6.84846 18.947C7.24303 18.9237 7.51537 18.8941 7.78556 18.8941C11.3989 18.892 15.0122 18.9047 18.6255 18.8729C19.0415 18.8687 19.4575 18.6102 19.8735 18.4683C19.6226 17.8455 19.0801 18.0828 18.6384 18.0806C14.757 18.0722 10.8778 18.0722 6.99643 18.0785C5.45246 18.0785 4.60328 17.1232 3.73908 15.7928H3.74123Z" fill="white"/>
<path id="Vector_3" d="M55.2667 39.1592H51.7049C51.6642 39.119 51.6063 39.0893 51.5955 39.047C51.3639 38.17 50.7864 37.7315 49.8629 37.7315C49.1681 37.7315 48.4711 37.7654 47.7785 37.7209C47.2017 37.6828 46.85 37.8903 46.717 38.4326C46.5562 39.0914 46.1295 39.2524 45.4797 39.2185C44.4697 39.1677 43.4575 39.2058 42.2996 39.2058C42.8099 38.1911 43.2581 37.2739 43.7277 36.3673C45.2545 33.408 46.7985 30.4571 48.3082 27.4894C48.5441 27.0233 48.8142 26.8221 49.3503 26.8412C50.2853 26.8751 51.2203 26.8454 52.1574 26.8285C52.5455 26.8221 52.7943 26.9026 52.8865 27.3517C53.6863 31.2219 54.5076 35.0899 55.3204 38.958C55.3289 39.0025 55.2968 39.0575 55.2689 39.1571L55.2667 39.1592ZM48.038 35.2657C48.9879 35.2657 49.7063 35.2933 50.4183 35.2424C50.5727 35.2319 50.8428 34.9162 50.8257 34.7701C50.6649 33.4588 50.4504 32.1518 50.251 30.8448C50.1631 30.8279 50.0752 30.8109 49.9851 30.794C49.3611 32.2281 48.7349 33.6622 48.038 35.2657Z" fill="white"/>
<path id="Vector_4" d="M16.6141 39.2021C17.3904 37.7045 18.0809 36.3721 18.7693 35.0396C20.0559 32.5485 21.3575 30.0637 22.6142 27.5556C22.8929 26.9985 23.236 26.7803 23.8558 26.8163C24.7629 26.8671 25.6764 26.8078 26.5834 26.8714C26.8129 26.8862 27.1753 27.151 27.2203 27.3544C28.0567 31.1695 28.8565 34.9909 29.6607 38.8124C29.68 38.9098 29.6521 39.0157 29.6435 39.2021C28.5327 39.2021 27.4391 39.2318 26.3497 39.1725C26.1674 39.1619 25.8737 38.7806 25.8586 38.556C25.8136 37.8549 25.4769 37.6769 24.8165 37.713C23.9351 37.7617 23.0495 37.7596 22.1681 37.713C21.5634 37.6791 21.1881 37.8782 21.0423 38.4544C20.8836 39.0729 20.4955 39.253 19.8608 39.217C18.8486 39.1619 17.8322 39.2021 16.6141 39.2021ZM25.2925 35.2324C25.0545 33.7051 24.8293 32.2498 24.602 30.7966C24.4991 30.7966 24.3962 30.7924 24.2954 30.7903C23.6649 32.2392 23.0345 33.6881 22.3633 35.2324H25.2925Z" fill="white"/>
<path id="Vector_5" d="M43.5158 26.7814C43.3314 27.7346 43.2091 28.5417 42.9968 29.3255C42.9411 29.5352 42.613 29.8 42.3942 29.8148C41.5965 29.8741 40.7902 29.8572 39.9882 29.8296C39.525 29.8148 39.3428 29.9652 39.2741 30.4397C38.8882 33.1024 38.4443 35.7567 38.0647 38.4194C37.9811 38.9977 37.8095 39.2456 37.1748 39.2159C36.1133 39.163 35.0454 39.2011 33.8703 39.2011C34.3527 36.0575 34.8202 33.0177 35.3049 29.8699H31.5736C31.7838 28.8573 31.9575 27.9634 32.1719 27.08C32.2019 26.9551 32.4357 26.7941 32.5772 26.7941C36.1862 26.7792 39.7952 26.7814 43.5201 26.7814H43.5158Z" fill="white"/>
<path id="Vector_6" d="M16.3912 26.8478C16.0653 28.4111 15.7737 29.8262 15.4777 31.2412C14.9759 33.6391 14.442 36.0329 13.9852 38.4393C13.8608 39.0875 13.5778 39.2379 12.9709 39.2146C11.9094 39.1722 10.8437 39.204 9.67712 39.204C10.0653 37.3271 10.4298 35.5541 10.7986 33.779C11.2275 31.7136 11.6757 29.6546 12.0831 27.585C12.1861 27.0596 12.3834 26.816 12.9623 26.8372C14.0517 26.8753 15.1432 26.8478 16.3891 26.8478H16.3912Z" fill="white"/>
<path id="Vector_7" d="M44.0155 50.7035C43.979 49.2631 44.127 47.8544 44.8496 46.5686C45.746 44.9777 47.736 44.4036 49.0698 45.4819C49.666 45.9627 50.1592 46.7507 50.3607 47.4879C50.944 49.6168 50.7982 51.7733 50.0884 53.8683C49.7517 54.8618 49.1191 55.618 48.0233 55.8934C46.6123 56.2472 45.2185 55.7197 44.7038 54.3894C44.2578 53.2328 44.0905 51.9682 43.801 50.7522C43.8718 50.7353 43.9426 50.7205 44.0133 50.7035H44.0155ZM45.3085 50.3646C45.3471 50.3688 45.3857 50.3731 45.4243 50.3794C45.4243 50.7755 45.3621 51.1823 45.4372 51.5636C45.6323 52.5888 45.7396 53.6671 46.1556 54.6076C46.6681 55.7684 48.0405 55.6985 48.6667 54.5801C48.8082 54.328 48.9304 54.0547 48.9926 53.7751C49.5223 51.4661 49.3958 49.1635 48.8275 46.8863C48.5895 45.9309 48.0298 45.52 47.2878 45.5327C46.5373 45.5454 45.9497 46.0369 45.7632 47.007C45.5487 48.1149 45.4565 49.244 45.3107 50.3646H45.3085Z" fill="white"/>
<path id="Vector_8" d="M86.7507 50.1827C86.5234 51.3923 86.3905 52.6294 86.0431 53.805C85.6078 55.2794 84.5399 56.0039 83.1653 55.9911C81.7972 55.9784 80.7829 55.2879 80.3754 53.8114C79.7043 51.369 79.6292 48.9075 80.8086 46.5688C81.349 45.4949 82.3033 44.9229 83.547 44.9716C84.8015 45.0203 85.6528 45.6919 86.0881 46.8252C86.3133 47.4098 86.4505 48.0347 86.5406 48.6554C86.6135 49.1447 86.5556 49.6531 86.5556 50.1552C86.6199 50.1636 86.6864 50.1742 86.7507 50.1827ZM81.2589 50.4284C81.2954 50.4327 81.334 50.4369 81.3705 50.4411C81.3705 50.7843 81.3168 51.1359 81.3812 51.4685C81.5806 52.5192 81.735 53.5953 82.0974 54.5931C82.2325 54.9659 82.9123 55.3811 83.3197 55.3599C83.7743 55.3345 84.2375 54.8706 84.6235 54.5189C84.8165 54.3431 84.8916 54.0042 84.9516 53.7245C85.4277 51.441 85.3354 49.1638 84.7779 46.9099C84.542 45.9609 83.9802 45.5351 83.2468 45.5372C82.4898 45.5372 81.9044 46.0096 81.7136 46.9946C81.4927 48.1258 81.4048 49.2845 81.2589 50.4305V50.4284Z" fill="white"/>
<path id="Vector_9" d="M78.881 50.1626C78.6559 51.3721 78.5229 52.6092 78.1798 53.787C77.7467 55.2677 76.6873 55.9964 75.3128 55.9901C73.9146 55.9837 72.9046 55.2762 72.4886 53.751C71.8431 51.387 71.7874 48.9996 72.851 46.7203C73.3978 45.5488 74.3885 44.8985 75.7395 44.9748C77.0733 45.0489 77.8839 45.8433 78.3128 47.0253C78.4993 47.5401 78.6066 48.093 78.6709 48.6374C78.7309 49.1309 78.6838 49.6372 78.6838 50.1371C78.7502 50.1456 78.8146 50.1562 78.881 50.1647V50.1626ZM77.5108 50.8849C77.2942 49.5292 77.1184 48.1205 76.8289 46.7351C76.6788 46.0212 76.1813 45.5213 75.3471 45.5361C74.5129 45.551 74.0712 46.0954 73.8953 46.7902C73.6895 47.6015 73.5436 48.4488 73.5222 49.2835C73.4793 50.9379 73.3335 52.6156 73.9875 54.2064C74.2577 54.8652 74.6309 55.4478 75.4822 55.416C76.3121 55.3842 76.7559 54.8292 76.9254 54.1408C77.1827 53.0986 77.3113 52.0267 77.5086 50.8849H77.5108Z" fill="white"/>
<path id="Vector_10" d="M94.6145 50.1829C94.3958 51.3692 94.2714 52.5788 93.9369 53.7333C93.4952 55.2648 92.4358 56.0041 91.0313 55.9914C89.6374 55.9766 88.6317 55.2669 88.2242 53.7311C87.5809 51.312 87.508 48.8759 88.681 46.5649C89.2257 45.493 90.1799 44.921 91.4215 44.9719C92.676 45.0227 93.5252 45.6963 93.9605 46.8296C94.1835 47.4143 94.3208 48.0392 94.4108 48.6599C94.4837 49.1492 94.4258 49.6576 94.4258 50.1596L94.6145 50.1851V50.1829ZM89.1313 50.4223C89.1699 50.4266 89.2064 50.4308 89.245 50.435C89.245 50.7782 89.1914 51.1298 89.2557 51.4624C89.4551 52.5131 89.6074 53.5892 89.9698 54.5869C90.1049 54.9598 90.7825 55.3792 91.1899 55.3559C91.6446 55.3305 92.1077 54.8687 92.4959 54.5192C92.691 54.3433 92.7661 54.0044 92.824 53.7248C93.3022 51.4412 93.2078 49.164 92.6524 46.9101C92.4187 45.959 91.8568 45.5332 91.1256 45.5332C90.3665 45.5332 89.7811 46.0035 89.5881 46.9864C89.3651 48.1176 89.2771 49.2763 89.1313 50.4223Z" fill="white"/>
<path id="Vector_11" d="M26.8065 9.89844C27.1989 11.4935 27.5806 13.0463 27.9666 14.6244C27.2932 15.0544 26.5641 15.5374 25.8093 15.978C25.6871 16.0479 25.3783 15.9865 25.2732 15.8763C23.6842 14.2304 22.8179 12.2667 22.6249 9.89844H26.8065Z" fill="white"/>
<path id="Vector_12" d="M42.6041 9.91406C42.5269 10.45 42.4862 10.9923 42.3661 11.5176C41.9973 13.1148 41.2124 14.5024 40.1209 15.7331C39.8143 16.0784 39.5827 16.1208 39.1881 15.839C38.5662 15.3942 37.8908 15.0256 37.2968 14.6612C37.6785 13.0958 38.0473 11.5748 38.4526 9.91406H42.6063H42.6041Z" fill="white"/>
<path id="Vector_13" d="M65.5943 54.7814C66.9153 54.7814 68.0132 54.8258 69.1047 54.7538C69.4371 54.7326 69.7631 54.4107 70.059 54.184C70.2584 54.0315 70.3978 53.8069 70.5651 53.612C70.638 53.6544 70.7109 53.6989 70.7859 53.7413C70.5329 54.3556 70.2927 54.9762 70.0204 55.5821C69.9711 55.6922 69.7931 55.8172 69.673 55.8172C67.7838 55.832 65.8924 55.8278 63.8059 55.8278C64.0675 55.4423 64.2112 55.1796 64.4021 54.9593C65.4592 53.7349 66.6065 52.5741 67.565 51.2798C68.1462 50.4939 68.5665 49.5364 68.8367 48.5937C69.1669 47.4371 68.5965 46.4034 67.6958 46.0941C66.7909 45.7827 65.9139 46.217 65.262 47.2761C65.1419 47.471 64.9639 47.6299 64.7194 47.9159C64.6658 45.9691 65.5193 45.0519 67.2777 44.965C68.8581 44.8867 70.0568 45.9374 70.1984 47.4986C70.3056 48.6742 69.896 49.6974 69.1862 50.5871C68.2791 51.7289 67.297 52.8113 66.347 53.9192C66.1454 54.1543 65.9417 54.3873 65.5986 54.7835L65.5943 54.7814Z" fill="white"/>
<path id="Vector_14" d="M26.7893 8.92822H22.6464C22.7879 6.44342 23.7743 4.42466 25.4941 2.71094C26.3798 3.2384 27.1968 3.72561 27.9795 4.19165C27.5935 5.73167 27.2054 7.27592 26.7893 8.9261V8.92822Z" fill="white"/>
<path id="Vector_15" d="M38.4399 8.90536C38.0453 7.2806 37.6744 5.75329 37.2948 4.18785C37.9381 3.78749 38.6479 3.32781 39.3813 2.90838C39.5185 2.83 39.8295 2.83 39.9238 2.92533C41.5321 4.57762 42.4757 6.52012 42.5722 8.90536H38.4399Z" fill="white"/>
<path id="Vector_16" d="M57.304 47.4372C57.2826 45.9247 57.6235 45.4248 58.7558 45.1049C60.0403 44.7427 61.2197 45.0774 61.7622 45.9565C62.3991 46.9881 62.131 47.9456 60.8058 49.367C60.8187 49.4115 60.8187 49.4856 60.8444 49.4941C62.7594 50.1868 62.8794 52.2034 62.3369 53.5274C61.4513 55.6923 58.7343 56.6307 56.5878 55.4635C56.6928 54.881 56.8022 54.2794 56.9566 53.4321C57.2032 53.7774 57.349 53.9108 57.4091 54.076C57.9495 55.5589 59.828 55.5525 60.7157 54.6014C61.4813 53.7816 61.5563 52.8008 61.2261 51.7904C60.9109 50.8287 60.1453 50.4071 59.1696 50.2715C58.9509 50.2398 58.7472 50.0915 58.5392 49.9983C58.7214 49.8415 58.893 49.6699 59.0881 49.5301C59.5599 49.1975 60.126 48.9539 60.5013 48.5387C61.1446 47.8312 61.0095 46.7827 60.3255 46.287C59.6178 45.7743 58.5199 45.9417 57.9516 46.6471C57.7715 46.8716 57.5828 47.0919 57.304 47.4309V47.4372Z" fill="white"/>
<path id="Vector_17" d="M96.3963 53.6547C96.4928 53.7945 96.615 53.9216 96.6815 54.0741C97.0353 54.8981 97.6444 55.3175 98.5622 55.2519C99.5121 55.1841 100.16 54.6863 100.494 53.822C101.226 51.9346 100.194 50.5047 97.6615 50.1912C97.9403 49.9073 98.0925 49.6976 98.2941 49.5621C98.7294 49.2676 99.2569 49.0812 99.6301 48.7274C100.372 48.0263 100.348 46.8951 99.6665 46.338C98.9503 45.7554 97.788 45.9355 97.179 46.7193C97.0182 46.9247 96.8466 47.1218 96.5786 47.4459C96.5743 45.8974 96.8659 45.4504 97.9682 45.1221C99.2398 44.7408 100.436 45.05 101.002 45.9037C101.667 46.9078 101.419 47.8568 100.042 49.4371C100.895 49.8205 101.693 50.3501 101.766 51.3118C101.828 52.1231 101.781 53.0298 101.466 53.7627C100.692 55.5633 98.4742 56.3958 96.525 55.8048C96.0382 55.6565 95.8023 55.4256 95.9481 54.896C96.0575 54.502 96.1133 54.0932 96.1926 53.6907C96.2612 53.678 96.3298 53.6674 96.3963 53.6547Z" fill="white"/>
<path id="Vector_18" d="M88.252 12.8203H89.3242C90.0425 16.6333 90.7566 20.4124 91.4707 24.1978C90.9668 24.4838 90.7395 24.3376 90.6601 23.8547C90.5272 23.0476 90.3771 22.2426 90.2506 21.4334C90.1841 21.0055 90.0104 20.817 89.5236 20.8022C87.5207 20.7492 87.5207 20.7301 87.1219 22.6578C87.0361 23.0709 87.0082 23.503 86.8688 23.8949C86.7938 24.1025 86.5322 24.2465 86.3563 24.4181L86.084 24.2487C86.8045 20.4569 87.525 16.663 88.2563 12.8203H88.252ZM88.9232 14.2184C88.8353 14.2226 88.7473 14.2248 88.6594 14.229C88.3034 16.1842 87.9496 18.1394 87.5894 20.1179H89.9825C89.618 18.0843 89.2706 16.1524 88.9232 14.2184Z" fill="white"/>
<path id="Vector_19" d="M91.1363 39.2482C90.9755 39.0385 90.7224 38.8479 90.6688 38.6127C90.4866 37.8162 90.3622 37.007 90.2378 36.1999C90.1756 35.789 89.9762 35.6449 89.5473 35.6216C87.5273 35.5178 87.5273 35.5051 87.1241 37.4476C87.0384 37.8607 87.0126 38.2929 86.869 38.6826C86.7875 38.905 86.5194 39.0597 86.3372 39.244C86.2621 39.1868 86.187 39.1317 86.1141 39.0745C86.1763 38.6403 86.2235 38.2018 86.305 37.7696C86.899 34.6366 87.5016 31.5057 88.0956 28.3749C88.1835 27.9088 88.2693 27.447 88.9147 27.625C89.0991 27.6758 89.35 27.8665 89.3822 28.0296C90.0748 31.6265 90.7396 35.2276 91.4065 38.8288C91.4194 38.9008 91.3851 38.9813 91.3743 39.0576C91.295 39.1211 91.2157 39.1825 91.1363 39.2461V39.2482ZM88.9297 28.9786C88.844 28.9722 88.756 28.9659 88.6703 28.9616C88.3314 30.8194 87.9841 32.6772 87.6688 34.5392C87.6452 34.6726 87.8425 34.9713 87.9519 34.9777C88.6016 35.02 89.2557 34.9989 89.9998 34.9989C89.6245 32.889 89.2771 30.9338 88.9297 28.9786Z" fill="white"/>
<path id="Vector_20" d="M28.7643 14.2645C28.4169 12.8389 28.0673 11.4069 27.6792 9.81604C29.2103 9.81604 30.4841 9.79909 31.7578 9.83934C31.908 9.84358 32.1674 10.1571 32.176 10.335C32.2189 11.2819 32.2232 12.2352 32.1739 13.1821C32.1631 13.3748 31.8887 13.6693 31.6871 13.7159C30.8057 13.9235 29.9072 14.059 28.7643 14.2645Z" fill="white"/>
<path id="Vector_21" d="M33.1217 13.5897V9.85938H37.3569C37.3891 11.3613 36.9752 12.7255 36.3919 14.0515C36.349 14.1469 36.0874 14.2168 35.9502 14.1913C35.0366 14.0155 34.1296 13.8079 33.1217 13.5897Z" fill="white"/>
<path id="Vector_22" d="M32.1888 8.92652H27.8979C27.8764 7.3632 28.2946 5.95875 28.9015 4.60938C29.875 4.77037 30.7928 4.90382 31.6999 5.086C31.8822 5.12201 32.1631 5.3402 32.1695 5.48212C32.2081 6.60695 32.191 7.7339 32.191 8.92652H32.1888Z" fill="white"/>
<path id="Vector_23" d="M41.8449 46.1829C40.5218 46.1829 39.3509 46.1448 38.1844 46.2084C37.8627 46.2253 37.5389 46.5219 37.2537 46.7358C37.0414 46.8947 36.8849 47.1298 36.7047 47.3311C36.6318 47.2887 36.5611 47.2485 36.4882 47.2061C36.7734 46.5558 37.05 45.9033 37.3545 45.2615C37.3931 45.1789 37.5797 45.1259 37.6976 45.1238C39.3767 45.1153 41.0557 45.1174 42.8592 45.1174C41.669 48.7631 40.5111 52.307 39.3359 55.9082H38.105C39.3402 52.701 40.5732 49.4918 41.8492 46.1829H41.8449Z" fill="white"/>
<path id="Vector_24" d="M33.0852 8.90666C33.0852 7.73311 33.0681 6.60616 33.1067 5.48133C33.111 5.33516 33.3769 5.1085 33.5527 5.07249C34.4383 4.89667 35.3326 4.77169 36.4541 4.59375C36.8036 5.95795 37.166 7.37511 37.5584 8.90666H33.0874H33.0852Z" fill="white"/>
<path id="Vector_25" d="M93.199 40.138C93.3469 40.2714 93.5528 40.3795 93.63 40.5447C93.9474 41.231 94.5156 41.3475 95.1654 41.2247C95.8301 41.0997 96.2869 40.7396 96.2783 39.9939C96.274 39.5618 96.2783 39.1275 96.2783 38.6996C96.0939 38.6996 96.0339 38.6827 95.9931 38.7017C94.0867 39.6635 93.0875 39.0746 93.0682 36.969C93.0574 35.7043 93.0639 34.4376 93.0682 33.1729C93.0682 32.4018 93.0274 31.5969 93.8637 31.1669C94.6614 30.7559 95.4141 30.9233 96.0489 31.4613C96.2783 31.2982 96.4692 31.1605 96.6622 31.0249C96.7394 31.2516 96.883 31.4783 96.8852 31.7049C96.9002 34.4206 96.8959 37.1363 96.8938 39.852C96.8938 40.5892 96.6665 41.3369 95.9245 41.5064C95.1997 41.6716 94.372 41.5911 93.6343 41.4238C93.3276 41.3539 93.1389 40.7777 92.8966 40.4303C92.9974 40.3329 93.1003 40.2375 93.2011 40.1401L93.199 40.138ZM96.2826 34.9671H96.2869C96.2869 34.3359 96.2869 33.7046 96.2869 33.0734C96.2869 33.0479 96.2869 33.0204 96.2869 32.995C96.2633 32.065 95.7401 31.4634 94.9424 31.4507C94.1575 31.438 93.6793 31.9464 93.6557 32.9335C93.6236 34.3528 93.6257 35.7742 93.6557 37.1935C93.675 38.1467 94.1382 38.6424 94.8888 38.6276C95.6414 38.6128 96.2462 38.0069 96.2783 37.1765C96.3083 36.4415 96.2848 35.7043 96.2848 34.9671H96.2826Z" fill="white"/>
<path id="Vector_26" d="M116.436 16.8281C116.436 15.7393 116.436 14.7775 116.436 13.8158C116.436 13.6061 116.423 13.39 116.462 13.1867C116.481 13.085 116.633 12.9177 116.68 12.9304C116.807 12.9685 116.974 13.0659 117.006 13.1761C117.064 13.3731 117.041 13.5934 117.041 13.8031C117.041 17.0463 117.043 20.2894 117.028 23.5326C117.028 23.7953 116.905 24.0558 116.841 24.3164C116.631 24.1702 116.421 24.024 116.17 23.8482C116.116 23.8863 116.013 23.9626 115.908 24.0389C114.699 24.9074 113.243 24.3248 113.153 22.8505C113.052 21.1961 113.054 19.5268 113.144 17.8703C113.224 16.3917 114.598 15.7732 115.878 16.54C116.005 16.6163 116.142 16.6777 116.434 16.8281H116.436ZM116.427 20.4886C116.444 20.4886 116.459 20.4886 116.477 20.4886C116.429 19.6243 116.451 18.7494 116.314 17.8978C116.189 17.1352 115.544 16.6798 114.918 16.7328C114.236 16.79 113.742 17.3619 113.732 18.1838C113.712 19.6052 113.712 21.0266 113.732 22.4459C113.745 23.3546 114.219 23.9012 114.95 23.9245C115.717 23.9499 116.384 23.308 116.421 22.4607C116.449 21.804 116.427 21.1452 116.427 20.4886Z" fill="white"/>
<path id="Vector_27" d="M133.658 16.751C133.658 15.5669 133.647 14.4611 133.67 13.3553C133.675 13.2028 133.859 13.0545 133.96 12.9062C134.063 13.0545 134.254 13.2028 134.254 13.3511C134.271 16.9861 134.267 20.6233 134.076 24.4003C133.881 24.2202 133.688 24.0423 133.45 23.822C133.492 23.8199 133.422 23.8029 133.392 23.8304C132.772 24.396 132.081 24.6587 131.275 24.2626C130.488 23.8749 130.37 23.1568 130.374 22.3815C130.381 21.0364 130.366 19.6912 130.374 18.3482C130.387 16.3739 131.582 15.6982 133.306 16.679C133.368 16.715 133.452 16.7108 133.66 16.7531L133.658 16.751ZM130.975 20.2907C130.975 20.2907 130.971 20.2907 130.968 20.2907C130.968 21.0046 130.951 21.7164 130.973 22.4281C131.001 23.3962 131.412 23.8876 132.171 23.9109C132.956 23.9342 133.6 23.3284 133.634 22.4366C133.675 21.3562 133.66 20.2717 133.64 19.1892C133.632 18.7189 133.61 18.2381 133.497 17.7847C133.325 17.0963 132.84 16.6557 132.099 16.7468C131.367 16.8357 130.992 17.3441 130.977 18.0728C130.962 18.8121 130.975 19.5514 130.975 20.2907Z" fill="white"/>
<path id="Vector_28" d="M75.3062 39.1889V12.6484C75.3748 12.6484 75.4434 12.6484 75.512 12.6484V39.1889C75.4434 39.1889 75.3748 39.1889 75.3062 39.1889Z" fill="white"/>
<path id="Vector_29" d="M102.574 35.0928H99.4393C99.4393 36.0672 99.3621 36.9823 99.4672 37.8784C99.5358 38.4694 100.098 38.6897 100.689 38.6833C101.279 38.6791 101.755 38.4673 101.903 37.8593C101.989 37.5056 101.965 37.1264 102.03 36.7663C102.051 36.6476 102.197 36.5502 102.285 36.4422C102.384 36.5417 102.564 36.637 102.57 36.743C102.624 37.4865 102.658 38.2491 101.983 38.7829C101.309 39.3167 100.531 39.3273 99.7824 39.0223C99.034 38.7172 98.7681 38.0648 98.7724 37.2852C98.7831 35.8067 98.7617 34.3281 98.781 32.8495C98.7981 31.6357 99.42 31.0108 100.582 30.9854C101.837 30.9578 102.484 31.5107 102.566 32.7563C102.615 33.4871 102.574 34.2264 102.574 35.0907V35.0928ZM100.64 34.6395C102.206 34.6268 101.968 34.775 101.974 33.3664C101.98 32.0297 101.543 31.426 100.627 31.4556C99.7695 31.4853 99.3621 32.0869 99.3707 33.3769C99.3793 34.8449 99.242 34.614 100.642 34.6395H100.64Z" fill="white"/>
<path id="Vector_30" d="M128.61 20.256H125.41C125.41 21.1923 125.365 22.0058 125.423 22.815C125.472 23.4865 125.925 23.8254 126.613 23.8551C127.312 23.8847 127.827 23.6475 127.977 22.923C128.039 22.618 127.992 22.2896 128.054 21.9825C128.08 21.8554 128.262 21.7622 128.374 21.652C128.46 21.7579 128.599 21.8532 128.623 21.9719C128.873 23.1963 128.17 24.23 127.019 24.3529C125.618 24.5033 124.808 23.819 124.791 22.4315C124.773 20.9826 124.771 19.5316 124.793 18.0826C124.812 16.8328 125.462 16.1592 126.62 16.1189C127.763 16.0787 128.507 16.7333 128.595 17.9365C128.648 18.663 128.605 19.3981 128.605 20.2539L128.61 20.256ZM128.059 19.7688C128.014 18.9829 128.031 18.2479 127.915 17.5361C127.803 16.8582 127.25 16.6125 126.605 16.6422C125.972 16.6697 125.517 17.0341 125.447 17.642C125.365 18.3305 125.427 19.0359 125.427 19.7688H128.061H128.059Z" fill="white"/>
<path id="Vector_31" d="M105.09 31.4152C105.791 31.2542 106.409 31.0021 107.026 31C107.749 30.9979 108.227 31.5063 108.24 32.2286C108.278 34.3914 108.268 36.5543 108.253 38.7149C108.253 38.8632 108.062 39.0094 107.961 39.1556C107.862 38.9691 107.678 38.7827 107.676 38.5942C107.654 36.7216 107.657 34.849 107.665 32.9764C107.669 31.8537 107.374 31.4046 106.58 31.3919C105.686 31.3771 105.038 32.0549 105.034 33.0315C105.028 34.8511 105.04 36.6708 105.021 38.4904C105.019 38.7128 104.865 38.9331 104.781 39.1534C104.674 38.9268 104.474 38.7022 104.472 38.4756C104.449 36.2068 104.451 33.9402 104.468 31.6715C104.468 31.4512 104.624 31.233 104.708 31.0148C104.869 31.1801 105.028 31.3432 105.094 31.411L105.09 31.4152Z" fill="white"/>
<path id="Vector_32" d="M107.594 20.2212C107.594 19.4035 107.551 18.5816 107.605 17.7682C107.671 16.7747 108.313 16.2027 109.325 16.1244C110.324 16.0481 111.156 16.584 111.319 17.5521C111.443 18.2978 111.424 19.0731 111.401 19.8335C111.396 19.9797 111.079 20.2212 110.89 20.236C110.198 20.2869 109.501 20.2742 108.804 20.2572C108.345 20.2466 108.096 20.3822 108.122 20.8842C108.152 21.4625 108.103 22.0493 108.156 22.6255C108.235 23.4559 108.748 23.8944 109.522 23.8753C110.318 23.8541 110.751 23.4135 110.815 22.5577C110.824 22.4518 110.792 22.3332 110.83 22.2442C110.918 22.0408 111.04 21.8544 111.148 21.6595C111.24 21.8693 111.403 22.0747 111.413 22.2866C111.456 23.2652 111.068 23.9431 110.354 24.2354C109.623 24.5362 108.495 24.3816 108.062 23.8054C107.796 23.4495 107.633 22.9602 107.588 22.5153C107.513 21.757 107.566 20.9859 107.566 20.2212C107.575 20.2212 107.584 20.2212 107.59 20.2212H107.594ZM110.841 19.8124C110.804 18.9947 110.828 18.2829 110.725 17.5881C110.633 16.9611 110.148 16.6582 109.518 16.6306C108.917 16.6052 108.409 16.8764 108.287 17.442C108.143 18.1008 108.167 18.7998 108.16 19.4819C108.16 19.5921 108.388 19.7912 108.514 19.7975C109.252 19.8272 109.994 19.8124 110.839 19.8124H110.841Z" fill="white"/>
<path id="Vector_33" d="M98.3412 20.1892C98.3412 19.4774 98.3241 18.7636 98.3455 18.0518C98.3691 17.2828 98.6736 16.6325 99.4434 16.3677C100.168 16.1199 100.925 16.0902 101.577 16.6092C102.268 17.16 102.225 17.9544 102.233 18.717C102.233 18.8144 102.042 18.914 101.94 19.0135C101.847 18.9097 101.695 18.8165 101.671 18.6979C101.605 18.3632 101.624 18.0115 101.545 17.6811C101.401 17.0837 101.017 16.7045 100.368 16.677C99.6943 16.6495 99.2504 16.9778 99.0532 17.6133C98.9995 17.787 98.9545 17.9734 98.9545 18.1556C98.9481 19.5537 98.9374 20.9539 98.9695 22.3499C98.9781 22.6782 99.0767 23.0426 99.2461 23.3222C99.5957 23.8941 100.181 24.0085 100.797 23.8433C101.519 23.6505 101.661 23.0871 101.684 22.424C101.697 22.0724 101.862 21.7271 101.959 21.3797C102.066 21.7377 102.257 22.0936 102.265 22.4516C102.289 23.6802 101.592 24.3835 100.387 24.4407C99.2654 24.4936 98.4656 23.82 98.3691 22.6422C98.3026 21.8288 98.3562 21.0069 98.3562 20.1892C98.3519 20.1892 98.3476 20.1892 98.3434 20.1892H98.3412Z" fill="white"/>
<path id="Vector_34" d="M92.8647 20.2834C92.8647 19.5971 92.8647 18.9107 92.8647 18.2244C92.8689 17.4385 93.0727 16.7267 93.8747 16.4026C94.6209 16.0997 95.4036 16.0764 96.0834 16.5954C96.7953 17.1377 96.7203 17.9427 96.6924 18.7074C96.6881 18.8091 96.5101 18.9023 96.4136 19.0018C96.3321 18.9129 96.197 18.8324 96.1799 18.7328C96.1263 18.4214 96.1456 18.0994 96.0877 17.788C95.9633 17.1144 95.5687 16.6801 94.8439 16.6717C94.1341 16.6632 93.5787 17.0445 93.5551 17.7245C93.493 19.434 93.4951 21.1498 93.5873 22.8572C93.6281 23.5986 94.2928 23.9735 95.0412 23.8888C95.7617 23.8083 96.1327 23.391 96.182 22.6835C96.1885 22.5776 96.1692 22.4653 96.197 22.3678C96.2978 22.0353 96.4136 21.7048 96.523 21.3744C96.6152 21.7239 96.7782 22.0734 96.7846 22.425C96.8061 23.6939 96.0791 24.4247 94.8461 24.4374C93.6838 24.4502 92.929 23.713 92.8732 22.4971C92.8561 22.1285 92.8668 21.7578 92.8647 21.3892C92.8647 21.0206 92.8647 20.6499 92.8647 20.2813V20.2834Z" fill="white"/>
<path id="Vector_35" d="M110.991 31.6039C110.991 32.6165 110.991 33.5867 110.991 34.5569C110.991 35.561 111.021 36.565 110.981 37.5649C110.953 38.2872 111.114 38.766 111.971 38.7151C112.063 38.7088 112.162 38.7829 112.355 38.8549C111.984 39.4227 111.429 39.2744 111.086 39.1303C110.779 39.0032 110.436 38.5563 110.414 38.2322C110.337 36.9972 110.382 35.7537 110.384 34.5124C110.384 33.5655 110.384 32.6207 110.384 31.767C110.037 31.5743 109.786 31.4366 109.533 31.2968C109.769 31.1464 110.003 30.9938 110.382 30.7502C110.382 30.3668 110.359 29.8182 110.397 29.2717C110.408 29.1234 110.603 28.9857 110.715 28.8438C110.805 28.9793 110.948 29.1085 110.974 29.2547C111.017 29.511 111.011 29.7822 110.985 30.0448C110.918 30.7015 111.056 31.1379 111.875 31.0193C111.995 31.0023 112.143 31.1781 112.278 31.265C112.149 31.3624 112.031 31.5128 111.885 31.5446C111.632 31.5997 111.362 31.5827 110.991 31.6039Z" fill="white"/>
<path id="Vector_36" d="M120.988 16.6544C120.977 16.5019 120.969 16.4553 120.973 16.4532C122.048 16.1947 121.771 15.3432 121.824 14.6187C121.84 14.4153 122 14.2204 122.093 14.0234L122.406 14.1145C122.406 14.553 122.436 14.9936 122.399 15.4279C122.352 15.9956 122.541 16.2795 123.158 16.2265C123.334 16.2117 123.519 16.3091 123.699 16.3557C123.699 16.4383 123.699 16.5209 123.699 16.6036C123.315 16.665 122.929 16.7264 122.406 16.8112V18.1817C122.406 19.6073 122.406 21.033 122.406 22.4607C122.406 23.3165 122.817 23.8193 123.639 23.969C123.667 24.041 123.697 24.113 123.724 24.185C123.469 24.2677 123.21 24.4286 122.959 24.4181C122.449 24.3948 121.891 24.3143 121.833 23.6491C121.788 23.1238 121.812 22.5942 121.812 22.0667C121.812 20.6135 121.794 19.1625 121.818 17.7093C121.829 17.1035 121.827 16.5739 120.986 16.6565L120.988 16.6544Z" fill="white"/>
<path id="Vector_37" d="M36.8699 3.4636C35.9071 2.26462 35.0214 1.1631 34.1079 0.0234375C35.9049 0.2734 37.5068 0.925844 39.0465 2.12058C38.2573 2.60779 37.5518 3.04417 36.8699 3.46571V3.4636Z" fill="white"/>
<path id="Vector_38" d="M26.2317 2.07808C27.722 0.929944 29.3089 0.300802 31.2003 0C30.6513 0.627024 30.1795 1.16296 29.712 1.70101C29.5898 1.84082 29.4805 1.99122 29.3689 2.13951C28.6456 3.1097 27.7714 3.22268 26.7463 2.47844C26.5984 2.3704 26.459 2.25601 26.2317 2.07808Z" fill="white"/>
<path id="Vector_39" d="M36.8398 15.3906C37.5303 15.7973 38.2422 16.2189 39.0549 16.6976C37.5324 17.8712 35.967 18.4961 34.1378 18.8032C35.0599 17.6382 35.9134 16.5599 36.8398 15.3927V15.3906Z" fill="white"/>
<path id="Vector_40" d="M31.0865 18.799C29.2552 18.5152 27.7005 17.8712 26.1865 16.7146C26.9842 16.2337 27.6962 15.8058 28.3845 15.3906C29.3131 16.5621 30.1601 17.6318 31.0865 18.799Z" fill="white"/>
<path id="Vector_41" d="M32.1437 0.637691V4.36382C31.1981 4.17106 30.3339 3.99523 29.1802 3.7601C30.1945 2.53995 31.0415 1.51891 31.8864 0.5C31.9722 0.546603 32.058 0.591088 32.1437 0.637691Z" fill="white"/>
<path id="Vector_42" d="M32.1482 14.5078V18.1958C32.0731 18.2445 31.9959 18.2933 31.9209 18.3399C31.0588 17.3146 30.1968 16.2914 29.3347 15.2662C29.369 15.173 29.4012 15.0776 29.4355 14.9844C30.2976 14.8319 31.1575 14.6815 32.1482 14.5078Z" fill="white"/>
<path id="Vector_43" d="M104.399 16.203C104.532 16.5525 104.663 16.902 104.805 17.277C105.304 16.8681 105.802 16.4614 106.299 16.0547C106.387 16.1309 106.475 16.2072 106.563 16.2856C106.381 16.508 106.241 16.8067 106.005 16.9401C105.143 17.4295 104.665 18.1116 104.672 19.1093C104.685 20.6387 104.697 22.1682 104.676 23.6976C104.674 23.9073 104.485 24.1149 104.382 24.3225C104.284 24.1191 104.101 23.9179 104.101 23.7145C104.082 21.395 104.088 19.0733 104.091 16.7537C104.091 16.6012 104.125 16.4487 104.144 16.2962C104.228 16.2665 104.311 16.2369 104.395 16.2072L104.399 16.203Z" fill="white"/>
<path id="Vector_44" d="M35.8835 15.2699C35.0429 16.293 34.2023 17.3162 33.3617 18.3415C33.2909 18.3033 33.218 18.2652 33.1472 18.2271V14.5391C34.0457 14.6873 34.8949 14.8272 35.7441 14.967C35.7913 15.0665 35.8363 15.1682 35.8835 15.2678V15.2699Z" fill="white"/>
<path id="Vector_45" d="M33.347 0.484375C34.1962 1.50753 35.0432 2.52856 36.0575 3.75083C34.9381 3.9902 34.0804 4.17449 33.1368 4.37785V0.603001C33.2076 0.562753 33.2762 0.524623 33.347 0.484375Z" fill="white"/>
<path id="Vector_46" d="M119.636 20.3447C119.636 21.4759 119.651 22.6092 119.621 23.7404C119.616 23.9395 119.423 24.1323 119.316 24.3272C119.22 24.1471 119.042 23.9671 119.042 23.7849C119.022 21.442 119.022 19.0991 119.042 16.7584C119.042 16.5889 119.243 16.4195 119.35 16.25C119.445 16.4301 119.616 16.6101 119.618 16.7923C119.642 17.9764 119.631 19.1606 119.631 20.3447H119.636Z" fill="white"/>
<path id="Vector_47" d="M55.1962 51.7716C55.2262 52.6316 54.8703 52.907 54.0854 52.8328C53.3263 52.7608 52.5543 52.818 51.7909 52.818C51.7287 51.9876 52.0675 51.6932 52.861 51.7589C53.6244 51.8224 54.3963 51.7716 55.1962 51.7716Z" fill="white"/>
<path id="Vector_48" d="M119.82 14.5081C119.601 14.7666 119.461 14.9318 119.322 15.097C119.223 14.8958 119.056 14.6988 119.05 14.4933C119.043 14.3175 119.215 14.1332 119.309 13.9531C119.455 14.1099 119.599 14.2688 119.82 14.5081Z" fill="white"/>
</g>
</svg>
