<svg width="134" height="62" viewBox="0 0 134 62" fill="none" xmlns="http://www.w3.org/2000/svg">
<g id="Layer_1" clip-path="url(#clip0_165_89170)">
<path id="Vector" d="M134 23.8802C133.835 24.2773 133.726 24.7137 133.495 25.0715C132.89 26.0097 132.294 26.9654 131.585 27.8294C130.379 29.3 129.078 30.692 127.842 32.1451C127.333 32.743 126.968 33.4193 127.163 34.2659C127.398 35.2783 127.629 36.295 127.877 37.3729C128.395 37.0194 128.782 36.6878 129.226 36.474C129.513 36.3343 129.979 36.2252 130.188 36.3649C130.475 36.5569 130.449 36.9889 130.21 37.338C129.822 37.9053 129.509 38.5293 129.069 39.0529C128.46 39.786 128.517 40.554 128.73 41.3832C128.856 41.8806 128.926 42.3955 129.043 42.8974C129.148 43.3556 129.3 43.421 129.661 43.1025C130.144 42.6748 130.727 42.5657 131.319 42.4741C131.38 42.4654 131.446 42.5046 131.502 42.5177C131.589 43.3905 131.245 44.0799 130.684 44.6734C129.748 45.664 129.531 46.8247 129.831 48.1208C130.001 48.8582 130.153 49.6001 130.292 50.3419C130.41 50.9747 129.831 51.7907 128.956 52.179C128.647 51.5638 128.325 50.9441 128.016 50.3201C127.233 48.723 126.458 47.1215 125.679 45.52C124.961 44.045 124.296 42.5439 123.499 41.117C123.138 40.4668 122.529 39.9519 122.007 39.402C121.75 39.1358 121.463 39.2537 121.241 39.4893C120.727 40.0304 120.214 40.5715 119.717 41.1301C118.943 41.9941 118.181 42.8712 117.415 43.7396C116.375 44.9221 115.292 46.0742 114.326 47.3135C114.021 47.7062 113.882 48.3651 113.943 48.8713C114.091 50.115 114.365 51.3456 114.643 52.5674C114.878 53.6191 114.752 54.5267 113.882 55.2468C113.686 55.4082 113.512 55.5959 113.264 55.8315C112.528 53.8547 111.823 51.9565 111.131 50.0975C110.383 50.403 109.669 50.7434 108.925 50.9877C108.19 51.2321 107.968 51.0008 107.92 50.2415C107.872 49.4953 108.155 48.8539 108.412 48.195C108.459 48.0684 108.503 47.9419 108.564 47.7848C106.636 47.2611 104.734 46.7506 102.833 46.2356C103.22 45.088 104.055 44.4945 104.956 44.5469C106.527 44.6429 108.103 44.704 109.674 44.7563C110.392 44.7825 110.953 44.4814 111.397 43.8879C111.789 43.3599 112.272 42.9017 112.715 42.413C114.099 40.8857 115.488 39.3584 116.867 37.8223C117.259 37.386 117.633 36.9321 118.012 36.4827C118.294 36.1467 118.168 35.911 117.846 35.671C116.519 34.6848 115.052 33.9997 113.494 33.463C110.731 32.5117 107.989 31.4993 105.243 30.5044C105.008 30.4171 104.791 30.2774 104.569 30.164C104.948 29.0731 105.909 28.5974 107.002 28.7676C107.937 28.9116 108.903 28.9989 109.843 28.916C110.727 28.8374 111.401 28.2178 111.98 27.5501C112.48 26.9741 113.142 26.8039 114.034 26.7035C113.79 27.5632 113.568 28.3356 113.333 29.1647C114.434 29.1952 115.636 29.2694 116.837 29.2345C117.115 29.2258 117.394 28.868 117.663 28.6541C118.181 28.2527 118.699 27.8512 119.2 27.4279C119.496 27.1792 119.861 27.0177 120.113 27.3276C120.27 27.5196 120.253 27.9472 120.166 28.2265C120.018 28.6934 119.752 29.1254 119.482 29.6796C120.762 29.8891 121.954 30.1291 123.155 30.2425C123.46 30.2731 123.869 29.9676 124.117 29.7102C125.523 28.2439 126.872 26.7297 128.282 25.2635C129.452 24.046 130.545 22.7325 132.281 22.2133C132.977 22.0038 133.495 22.0474 134.004 22.5231V23.8846L134 23.8802Z" fill="white"/>
<path id="Vector_2" d="M6.10352e-05 17.596C0.369962 16.8062 1.07495 16.7756 1.8017 16.7974C2.16725 16.8062 2.5328 16.8062 2.89835 16.7974C3.63815 16.78 4.01675 16.4047 4.00805 15.6672C3.98194 14.105 4.03851 12.5472 4.43452 11.0286C5.03072 8.74199 6.60606 7.13177 9.0213 6.85685C10.3747 6.70412 11.7368 6.63866 13.0946 6.5383C13.6821 6.49466 14.2652 6.45102 14.8527 6.43793C15.5533 6.42484 15.8318 6.70848 15.8318 7.40232C15.8318 8.78126 15.8318 10.1602 15.8318 11.5391C15.8318 12.3988 15.4663 12.6912 14.622 12.5079C13.5167 12.2723 12.5724 12.5384 11.8064 13.385C11.0275 14.2447 10.984 15.292 11.4583 16.2651C11.6715 16.7014 12.1328 16.7844 12.568 16.7931C13.4035 16.8105 14.2391 16.8193 15.0746 16.7931C16.0059 16.7625 16.1408 16.9545 16.2365 17.9713C16.2844 18.4819 16.1626 19.0055 16.1539 19.5248C16.1495 19.887 16.2365 20.2448 16.2365 20.607C16.2365 20.895 16.1974 21.1917 16.1452 21.4754C16.0668 21.9074 15.784 22.0645 15.3618 22.0601C14.4219 22.0514 13.4819 22.0601 12.5419 22.0601C11.7455 22.0601 11.4104 22.3656 11.3451 23.1598C11.3321 23.3169 11.3451 23.474 11.3451 23.6311C11.3451 30.2421 11.3451 36.8576 11.3451 43.4686C11.3451 44.3152 11.2146 44.4636 10.3573 44.4679C8.58177 44.481 6.80624 44.4723 5.03072 44.4679C4.42582 44.4679 4.07333 44.1319 4.01675 43.521C4.0037 43.3639 4.01675 43.2068 4.01675 43.0497C4.01675 36.4386 4.01675 29.8232 4.01675 23.2121C4.01675 22.3176 3.76435 22.0601 2.88529 22.0558C2.29345 22.0558 1.70161 22.0339 1.10976 22.0645C0.678939 22.0863 0.309037 21.999 0.00876459 21.6805V17.596H6.10352e-05Z" fill="white"/>
<path id="Vector_3" d="M85.3299 62.0008C85.2167 61.9528 85.1079 61.8655 84.9948 61.8611C83.0452 61.7477 81.1478 61.3462 79.2722 60.84C77.0876 60.2509 75.0075 59.3913 73.01 58.3265C70.9995 57.253 69.1282 55.9745 67.3918 54.4864C65.155 52.5707 63.2446 50.3845 61.6736 47.8972C61.4168 47.4913 61.1949 47.0681 60.899 46.5575C63.3099 46.5968 65.1333 45.5975 66.5911 43.7734C71.2954 50.0965 77.3531 54.1417 85.2124 55.1933C93.0412 56.2406 99.991 54.085 106.279 49.2281C106.105 50.2187 106.153 51.0696 106.627 51.8551C107.15 52.7235 108.055 52.706 108.964 52.8631C108.647 53.6486 108.138 54.2595 107.528 54.7832C105.674 56.3585 103.573 57.541 101.379 58.5491C98.3243 59.9498 95.1736 61.08 91.8488 61.6429C91.3223 61.7302 90.7914 61.7782 90.2648 61.8568C90.1821 61.8699 90.1125 61.9484 90.0341 61.9964H85.3342L85.3299 62.0008Z" fill="white"/>
<path id="Vector_4" d="M90.1341 0C90.5345 0.082911 90.9348 0.196368 91.3396 0.244369C95.2562 0.672016 98.9291 1.88077 102.358 3.80518C103.612 4.50774 104.765 5.40231 105.953 6.22269C106.044 6.28815 106.066 6.45397 106.118 6.57615C105.988 6.60234 105.827 6.69398 105.731 6.65034C105.022 6.30124 104.304 5.96523 103.633 5.55068C100.744 3.75282 97.6758 2.40006 94.3249 1.77168C93.0585 1.53604 91.766 1.44876 90.4823 1.3353C89.6554 1.26112 88.8199 1.20876 87.993 1.23057C84.8554 1.31785 81.8092 1.88077 78.8935 3.0808C76.3433 4.13246 73.989 5.52886 71.8915 7.31363C69.6851 9.1944 67.6833 11.2846 66.0905 13.7327C64.1801 16.6738 62.9442 19.8768 62.3001 23.3285C61.8606 25.685 61.8519 28.0588 61.9128 30.4327C61.9389 31.3578 62.1609 32.2742 62.2827 33.195C62.3132 33.4175 62.2827 33.6444 62.2827 33.9281C60.3418 33.7142 58.6533 34.4386 56.9866 35.5034C56.8648 34.8357 56.6907 34.2554 56.6602 33.6662C56.5863 32.1564 56.4296 30.6247 56.5775 29.1323C56.7864 27.0639 57.165 25.0042 57.622 22.9794C58.0963 20.8761 58.9014 18.8688 59.8762 16.94C60.9554 14.8062 62.2523 12.8207 63.8189 11.0141C66.4213 8.00746 69.4414 5.52449 72.9489 3.64372C75.795 2.11641 78.8064 1.0953 81.9615 0.488739C82.8536 0.318553 83.7718 0.266188 84.6726 0.152731C84.7553 0.144003 84.8293 0.0610923 84.9033 0.0130912C86.6527 0 88.3934 0 90.1341 0Z" fill="white"/>
<path id="Vector_5" d="M43.2741 36.3677C43.3742 36.0666 43.4874 35.7698 43.5744 35.4688C44.6275 31.7421 45.6763 28.0155 46.7251 24.2845C47.3561 22.0328 47.9654 19.7724 48.6094 17.5207C48.8444 16.6959 49.0315 16.5869 49.8627 16.5869C51.8297 16.5869 53.7967 16.5869 55.7637 16.5869C56.4687 16.5869 56.6036 16.757 56.3686 17.4334C55.185 20.8677 53.9926 24.3063 52.7958 27.7362C51.4468 31.6068 50.1195 35.4862 48.7182 39.3394C47.2256 43.45 45.672 47.5388 44.1227 51.6277C43.3481 53.6699 41.8293 54.8263 39.697 55.2583C37.9127 55.6205 36.1285 55.6467 34.3312 55.4634C34.2268 55.4547 34.1223 55.4634 34.0179 55.4547C33.4261 55.4329 33.0562 55.0619 33.0518 54.4641C33.0431 53.0677 33.0475 51.6713 33.0518 50.2749C33.0518 49.7295 33.3173 49.5985 33.8874 49.6422C36.0589 49.8124 38.1826 49.2887 38.9615 46.941C39.2792 45.981 39.1356 45.0995 38.8005 44.1831C37.9563 41.8704 37.1468 39.5401 36.3287 37.2186C34.8491 33.0076 33.3738 28.7966 31.8942 24.5899C31.0761 22.2641 30.2449 19.9469 29.4311 17.6211C29.0786 16.6174 29.1178 16.5781 30.1796 16.5781C32.2337 16.5781 34.2877 16.5781 36.3418 16.5781C37.1077 16.5781 37.2382 16.6523 37.4602 17.3811C38.0912 19.4407 38.7135 21.5004 39.3184 23.5645C39.9015 25.5456 40.4585 27.5355 41.0417 29.5166C41.6509 31.5807 42.2732 33.6403 42.8912 35.7C42.9565 35.9226 43.0609 36.1364 43.1436 36.3546C43.1871 36.3546 43.2306 36.3546 43.2741 36.3546V36.3677Z" fill="white"/>
<path id="Vector_6" d="M78.2883 16.5859C81.2475 16.5859 84.2024 16.5859 87.1616 16.5859C88.6978 16.5859 89.9468 17.8907 90.0033 19.4355C90.0512 20.7097 89.7466 21.7832 88.5977 22.4552C88.2234 22.6734 87.7752 22.8435 87.3444 22.8784C86.2216 22.9657 85.0945 22.9788 83.9718 22.9963C83.6323 23.0006 83.2885 22.9046 82.9447 22.9046C82.3703 22.9046 81.9264 23.1752 81.9308 23.9127C81.9612 29.3193 81.9569 34.7304 81.9351 40.1414C81.9351 40.9792 81.822 41.8127 81.3912 42.5851C80.2989 44.5488 77.431 45.0419 75.8383 43.4535C75.1594 42.7771 74.7721 41.9262 74.7199 40.9618C74.6589 39.801 74.6154 38.6359 74.6154 37.4752C74.6024 33.094 74.6067 28.7171 74.6154 24.3359C74.6154 22.9177 74.3935 22.9875 73.175 22.9177C71.926 22.8479 70.6684 22.9046 69.4194 22.9003C68.0355 22.9003 66.6343 21.6784 66.4733 20.1293C66.2905 18.3707 67.2609 17.1358 68.8102 16.6732C69.006 16.6165 69.2149 16.5903 69.4194 16.5903C72.3786 16.5859 75.3335 16.5903 78.2927 16.5903L78.2883 16.5859Z" fill="white"/>
<path id="Vector_7" d="M102.419 28.1826C102.419 30.6961 102.432 33.2096 102.419 35.7231C102.406 37.6606 101.993 39.4803 100.792 41.0643C99.9302 42.2032 98.8074 42.98 97.515 43.5167C95.6045 44.3109 93.5984 44.6208 91.5443 44.4549C89.6731 44.3066 87.9846 43.5866 86.5006 42.4214C85.5954 41.7101 84.8034 40.9029 84.2594 39.8686C83.4587 38.3501 83.2498 36.7398 83.4631 35.0554C83.5501 34.3747 83.5501 33.6852 83.9766 33.083C84.8426 31.8568 86.0872 31.5034 87.384 31.6954C88.6547 31.8786 89.7775 33.1049 89.9951 34.3834C90.13 35.1776 90.2257 35.9806 90.4129 36.7617C90.5869 37.4817 91.3224 38.0228 92.0448 38.0577C92.4147 38.0752 92.7846 38.0533 93.1545 38.0621C94.1684 38.097 94.9387 37.1631 95.0736 36.286C95.1563 35.758 95.1824 35.2169 95.1868 34.6845C95.1955 30.0066 95.1868 25.3287 95.1955 20.6507C95.1955 19.5947 95.4131 18.5998 96.118 17.7576C96.6141 17.1685 97.2408 16.7932 97.9719 16.6143C99.5603 16.2259 101.497 17.1205 102.05 18.578C102.254 19.1147 102.402 19.7082 102.411 20.2798C102.45 22.9155 102.428 25.5512 102.428 28.1869L102.419 28.1826Z" fill="white"/>
<path id="Vector_8" d="M26.1717 25.5511C26.1717 31.4509 26.1717 37.3463 26.1717 43.2461C26.1717 44.1668 25.8801 44.4635 24.9749 44.4635C23.3387 44.4635 21.7024 44.4635 20.0661 44.4635C19.174 44.4635 18.8389 44.1363 18.8389 43.2461C18.8389 31.416 18.8389 19.5815 18.8389 7.75141C18.8389 6.99648 18.9956 6.84375 19.7528 6.84375C21.5805 6.84375 23.4083 6.84375 25.236 6.84375C25.9976 6.84375 26.1717 7.02266 26.1717 7.80377C26.1717 13.721 26.1717 19.6339 26.1717 25.5511Z" fill="white"/>
<path id="Vector_9" d="M65.4466 40.2299C65.5423 42.5209 63.4709 44.4758 61.2819 44.4453C59.0016 44.4104 57.0824 42.5776 57.1564 40.0597C57.2174 37.9346 59.1104 36.0757 61.3167 36.0626C63.5492 36.0495 65.5728 38.1222 65.4509 40.2299H65.4466Z" fill="white"/>
</g>
<defs>
<clipPath id="clip0_165_89170">
<rect width="134" height="62" fill="white"/>
</clipPath>
</defs>
</svg>
