<?xml version="1.0" encoding="utf-8"?>
<svg viewBox="82.6923 52.837 109 48.9984" xmlns="http://www.w3.org/2000/svg">
  <defs>
    <clipPath id="clip0_17_93">
      <rect width="109" height="49" fill="white" transform="translate(0 0.489746)"/>
    </clipPath>
  </defs>
  <g clip-path="url(#clip0_17_93)" transform="matrix(1, 0, 0, 1, 82.69226837158205, 52.34726333618164)">
    <path d="M12.8557 5.68703L11.6313 5.56183H10.616C7.35804 5.56183 5.28561 6.21986 4.44349 7.54174C3.6402 8.4065 3.21616 10.0137 3.21616 12.3634V13.8018H0V17.846H3.29977V35.543H9.17665V17.8519H13.0319V13.8047H9.17964V11.9558C9.17068 11.519 9.31999 11.0969 9.60368 10.7591C10.0337 10.3631 10.625 10.1797 11.2103 10.2641C11.7597 10.2554 12.3122 10.2845 12.8587 10.3457V5.68703H12.8557Z" fill="#3D8DFF"/>
    <path d="M15.391 5.85007V35.543H21.2679V5.85007H15.391Z" fill="#3D8DFF"/>
    <path d="M27.6106 39.7882L26.8461 39.7445V44.3245C27.527 44.3624 27.9898 44.406 28.2855 44.406H29.5486C32.1317 44.406 33.8667 43.9111 34.7506 42.9211C35.5987 41.9311 36.7813 39.3369 38.2594 35.1674L46.0057 13.6038H39.7406L35.094 29.7692L30.1877 13.6038H23.6329L31.9227 36.4893C31.8898 36.9639 31.7614 37.4268 31.5434 37.849C31.3762 38.4051 31.0328 38.8943 30.5669 39.2524C30.1757 39.5116 29.7248 39.6804 29.256 39.7416C28.7095 39.7998 28.1571 39.8144 27.6076 39.7853L27.6106 39.7882Z" fill="#3D8DFF"/>
    <path fill-rule="evenodd" clip-rule="evenodd" d="M71.1287 0.489747C76.7369 0.481012 82.1867 2.31243 86.5973 5.68703H85.5522C75.8081 -1.45232 61.97 0.463542 54.6478 9.96714C51.778 13.694 50.2252 18.2275 50.2222 22.8861C50.2222 24.3827 50.3835 25.8734 50.7 27.338C50.4074 27.2856 50.1087 27.2565 49.8131 27.2565C48.5022 27.2565 47.239 27.7398 46.2804 28.6133C44.2408 15.2197 53.7221 2.74627 67.4617 0.754706C68.6771 0.580008 69.9014 0.489747 71.1287 0.489747ZM54.1252 35.1033C61.0383 44.8894 74.7809 47.3584 84.8176 40.6151C85.376 40.2395 85.9135 39.8406 86.4331 39.4184C86.0598 40.2365 86.2241 41.1916 86.8512 41.8467C87.4962 42.3446 88.3771 42.4407 89.1207 42.0913C79.4364 51.7783 63.5318 51.9763 53.5966 42.5338C51.9781 40.9936 50.5776 39.2495 49.4398 37.3453C49.5623 37.354 49.6907 37.3628 49.8191 37.3628C51.5541 37.3628 53.1726 36.5155 54.1282 35.1062V35.1004L54.1252 35.1033Z" fill="#3D8DFF"/>
    <path d="M49.8131 35.5401C51.6438 35.5401 53.1278 34.0931 53.1278 32.3082C53.1278 30.5232 51.6438 29.0762 49.8131 29.0762C47.9825 29.0762 46.4984 30.5232 46.4984 32.3082C46.4984 34.0931 47.9825 35.5401 49.8131 35.5401Z" fill="#F9B500"/>
    <path d="M81.1774 33.6825C82.566 32.3548 83.3036 30.5117 83.205 28.6191V16.4019C83.1991 14.8587 81.918 13.6096 80.3353 13.6038C78.7496 13.6038 77.4625 14.8587 77.4596 16.4077V28.4706C77.4596 29.9701 76.7518 30.7184 75.3393 30.7184C73.5566 30.7184 73.1833 29.6498 73.1833 28.194C73.1773 26.7557 71.9858 25.5939 70.5106 25.5881C69.0384 25.5939 67.8439 26.7586 67.838 28.194C67.838 30.3341 68.1814 32.1597 69.9014 33.6854C71.4573 34.9898 73.4729 35.6536 75.5245 35.5401C77.585 35.6478 79.6096 34.984 81.1804 33.6854L81.1774 33.6825Z" fill="#F9B500"/>
    <path fill-rule="evenodd" clip-rule="evenodd" d="M60.7516 18.5245L60.668 18.5972H56.6217C55.2092 18.5943 54.0655 17.4763 54.0595 16.0991C54.0655 14.7218 55.2092 13.6096 56.6217 13.6067H70.6241C72.0336 13.6125 73.1743 14.7248 73.1803 16.0991C73.1773 17.4763 72.0336 18.5914 70.6241 18.5972H66.5777L66.4941 18.5594V32.742C66.4882 34.2881 65.2041 35.5401 63.6184 35.5459C62.0327 35.5401 60.7516 34.2881 60.7486 32.742V18.5245H60.7516Z" fill="#F9B500"/>
    <path d="M89.8464 36.07C88.4249 35.971 84.8833 35.6624 84.6981 35.6682C84.3846 36.0088 83.6768 36.7688 83.4141 37.0599C85.1072 37.3831 86.7795 37.7966 88.4249 38.3032C87.8396 39.3922 87.4037 40.5219 87.7769 40.8422C88.1502 41.1624 89.2491 40.6209 90.2973 39.9454C90.9871 41.4856 91.5873 43.0637 92.095 44.6681L93.3761 43.2763C93.3671 43.0958 92.6773 39.6921 92.4235 38.3236L92.4504 38.2974C92.4504 38.2974 92.4534 38.2887 92.4593 38.2857C92.4653 38.2828 92.4683 38.277 92.4713 38.277L98.9036 31.3065C99.3814 31.7316 100.047 32.3314 100.349 32.5935C100.564 33.0535 104.452 40.9907 104.969 41.8787C105.163 41.672 105.533 41.2673 105.936 40.8334C105.948 40.6966 105.632 38.8652 105.267 36.8561C105.503 36.6611 105.727 36.4485 105.936 36.2243C106.811 35.2722 107.274 34.2822 106.966 34.0144C106.674 33.7552 105.796 34.2415 104.957 35.1033C104.718 33.7698 104.497 32.5498 104.386 31.9093C104.583 31.7404 104.769 31.5569 104.942 31.3677C105.82 30.4156 106.28 29.4314 105.975 29.1578C105.688 28.9074 104.834 29.3732 104.01 30.203C103.714 29.1083 103.296 27.6641 103.045 26.8139L107.432 22.0592C107.477 22.0097 107.513 21.9544 107.543 21.8961C108.836 20.2889 109.37 18.6788 108.734 18.1255C108.098 17.5723 106.512 18.2537 105.01 19.6804C104.954 19.7124 104.903 19.7532 104.861 19.7997L100.471 24.5515C99.5785 24.406 98.0585 24.1439 96.9118 23.9809C97.6763 23.0928 98.0615 22.2164 97.7718 21.966C97.4642 21.6981 96.5057 22.2513 95.6247 23.1976C95.4426 23.3985 95.2753 23.6053 95.129 23.7974C94.4661 23.7596 93.1999 23.678 91.8143 23.582C92.6056 22.6794 93.0058 21.7738 92.7161 21.5205C92.4115 21.2497 91.45 21.8 90.575 22.7521C90.369 22.9763 90.1749 23.2151 89.9957 23.4626C87.9083 23.3286 86.0091 23.2122 85.8717 23.2384C85.4686 23.6722 85.0953 24.0769 84.9012 24.2895C85.8658 24.6971 94.3705 27.6291 94.8602 27.7864C95.1589 28.0484 95.8397 28.6337 96.3265 29.0529L89.8942 36.0234L89.8852 36.0321L89.8733 36.0438L89.8494 36.0671L89.8464 36.07Z" fill="#3D8DFF"/>
  </g>
</svg>