<?xml version="1.0" encoding="UTF-8"?> <svg xmlns="http://www.w3.org/2000/svg" width="60" height="134" viewBox="0 0 60 134" fill="none"> <path d="M19.5545 1.67482C20.2006 0.778893 21.4506 0.576347 22.3465 1.22242C23.2424 1.86848 23.445 3.1185 22.7989 4.01443L19.5545 1.67482ZM26.02 91.1853L25.3351 89.3062L26.02 91.1853ZM58.6822 132.052C58.6447 133.156 57.7193 134.02 56.6154 133.983L38.6258 133.371C37.5219 133.333 36.6574 132.408 36.695 131.304C36.7325 130.2 37.6579 129.335 38.7618 129.373L54.7526 129.917L55.2968 113.926C55.3344 112.822 56.2598 111.958 57.3637 111.996C58.4676 112.033 59.3321 112.959 59.2945 114.062L58.6822 132.052ZM22.7989 4.01443C18.2997 10.2537 13.9816 19.6566 10.6384 30.1215C7.30134 40.567 4.98161 51.9263 4.4003 62.0143C3.81305 72.2053 5.02575 80.6961 8.34291 85.7453C9.95431 88.1981 12.0336 89.8002 14.6749 90.4743C17.359 91.1593 20.8475 90.942 25.3351 89.3062L26.7049 93.0643C21.7313 94.8773 17.389 95.2951 13.6858 94.3501C9.93982 93.3941 7.07539 91.1009 4.99981 87.9416C0.943016 81.7665 -0.191291 72.1655 0.406925 61.7841C1.01108 51.2997 3.40927 39.6058 6.8281 28.9042C10.2407 18.222 14.7165 8.38384 19.5545 1.67482L22.7989 4.01443ZM25.3351 89.3062C31.2484 87.1508 34.765 84.9828 36.6802 83.1047C38.5717 81.2499 38.7127 79.8998 38.5232 79.1186C38.3084 78.2336 37.4877 77.2879 36.041 76.657C34.6202 76.0373 32.8951 75.8703 31.3981 76.2855C29.9609 76.6841 28.7288 77.6102 28.0535 79.2915C27.3512 81.0402 27.1579 83.8492 28.422 88.1144C30.961 96.6812 39.125 110.259 58.1449 130.619L55.2219 133.349C36.1 112.88 27.3996 98.7414 24.5869 89.251C23.1751 84.4877 23.1841 80.6829 24.3417 77.8007C25.5263 74.8512 27.8117 73.1293 30.329 72.431C32.7865 71.7494 35.4529 72.0366 37.6401 72.9905C39.8013 73.9331 41.8049 75.6802 42.4104 78.1754C43.041 80.7745 41.9981 83.4922 39.4808 85.9607C36.9873 88.4059 32.8704 90.817 26.7049 93.0643L25.3351 89.3062Z" fill="#272727"></path> </svg> 