<?xml version="1.0" encoding="UTF-8"?> <svg xmlns="http://www.w3.org/2000/svg" width="190" height="94" viewBox="0 0 190 94" fill="none"> <path d="M38.6362 37.9983L48.0203 36.8843L49.5057 49.3964L47.4322 49.6426L46.1739 39.043L40.9188 39.6668L42.1771 50.2664L40.1215 50.5104L38.6362 37.9983ZM60.3619 46.8932C59.4979 47.9625 58.3271 48.5848 56.8495 48.7602C55.3719 48.9357 54.0819 48.6054 52.9797 47.7695C51.888 46.9203 51.2558 45.7688 51.0832 44.315C50.9701 43.3617 51.088 42.4716 51.4369 41.6447C51.7978 40.8164 52.346 40.141 53.0815 39.6187C53.8276 39.083 54.6832 38.7579 55.6485 38.6433C56.6137 38.5287 57.5157 38.6452 58.3545 38.9927C59.2038 39.3269 59.8949 39.8551 60.4278 40.5773C60.9726 41.2982 61.3015 42.1352 61.4147 43.0885C61.5873 44.5423 61.2363 45.8105 60.3619 46.8932ZM56.6246 46.8655C57.2323 46.7934 57.7589 46.598 58.2045 46.2792C58.6486 45.9485 58.9734 45.5293 59.179 45.0216C59.3951 44.5004 59.467 43.936 59.3949 43.3283C59.286 42.4107 58.8982 41.6894 58.2317 41.1643C57.577 40.6378 56.7909 40.429 55.8734 40.538C54.9558 40.6469 54.2345 41.0346 53.7094 41.7012C53.1963 42.3663 52.9941 43.1577 53.1031 44.0752C53.212 44.9928 53.5938 45.7148 54.2484 46.2413C54.915 46.7664 55.707 46.9745 56.6246 46.8655ZM72.0696 44.8145L73.3208 44.6659L73.8322 48.9737L72.0269 49.188L71.7383 46.7571L64.6958 47.5931L64.9843 50.0241L63.179 50.2384L62.6676 45.9306L63.6865 45.8097C63.9337 45.5507 64.1012 45.1804 64.189 44.6987C64.2887 44.2156 64.3423 43.4962 64.3497 42.5407C64.3557 41.5732 64.3274 40.0117 64.2649 37.856L71.1466 37.0391L72.0696 44.8145ZM66.2245 39.3998C66.324 41.3577 66.3406 42.7696 66.2742 43.6355C66.2078 44.5013 66.0364 45.144 65.7599 45.5635L70.1213 45.0458L69.4062 39.0221L66.2245 39.3998ZM83.8347 43.4178L85.0859 43.2693L85.5973 47.577L83.7919 47.7913L83.5033 45.3604L76.4608 46.1965L76.7494 48.6274L74.9441 48.8417L74.4327 44.5339L75.4515 44.413C75.6987 44.1541 75.8662 43.7837 75.954 43.302C76.0538 42.8189 76.1074 42.0995 76.1148 41.144C76.1208 40.1766 76.0925 38.615 76.0299 36.4593L82.9116 35.6424L83.8347 43.4178ZM77.9896 38.0031C78.0891 39.961 78.1056 41.3729 78.0392 42.2388C77.9729 43.1046 77.8014 43.7473 77.525 44.1668L81.8863 43.6491L81.1712 37.6254L77.9896 38.0031ZM95.8636 39.0171C95.8848 39.1958 95.8991 39.4177 95.9064 39.6827L88.0774 40.6121C88.2885 41.3725 88.6831 41.948 89.2611 42.3386C89.8511 42.7277 90.5394 42.8756 91.3258 42.7823C91.7072 42.737 92.0583 42.6409 92.3792 42.4941C92.6987 42.3353 92.9716 42.1398 93.1978 41.9075C93.4345 41.6619 93.6185 41.3802 93.75 41.0625L95.8413 40.8142C95.5817 41.8843 95.0694 42.7608 94.3046 43.4437C93.5383 44.1147 92.619 44.5139 91.5465 44.6412C90.1285 44.8095 88.8855 44.4677 87.8176 43.6156C86.7616 42.7622 86.1481 41.6145 85.9769 40.1726C85.8057 38.7308 86.1335 37.4713 86.9604 36.3943C87.7991 35.316 88.9275 34.6926 90.3455 34.5242C91.3107 34.4097 92.1963 34.5402 93.0022 34.9158C93.8067 35.2795 94.4575 35.8246 94.9546 36.551C95.4503 37.2656 95.7533 38.0876 95.8636 39.0171ZM90.5577 36.3117C89.8189 36.3994 89.2121 36.6829 88.7373 37.1622C88.2744 37.6401 88.0027 38.2524 87.9221 38.9991L93.7671 38.3052C93.5899 37.8308 93.3438 37.4371 93.0287 37.1241C92.7122 36.7991 92.3407 36.5713 91.9144 36.4407C91.4985 36.2967 91.0463 36.2537 90.5577 36.3117ZM102.551 33.0752C103.505 32.9621 104.389 33.0807 105.204 33.431C106.017 33.7695 106.685 34.3005 107.205 35.0242C107.726 35.7478 108.043 36.5863 108.157 37.5396C108.329 38.9934 107.996 40.2595 107.157 41.3379C106.329 42.4029 105.194 43.021 103.752 43.1922C102.513 43.3393 101.401 43.0787 100.415 42.4102L100.937 46.8073L98.9528 47.0429L97.3952 33.923L98.7358 33.7638L99.2512 34.899C100.069 33.8473 101.169 33.2393 102.551 33.0752ZM101.008 40.6902C101.675 41.2153 102.461 41.4241 103.366 41.3166C104.284 41.2077 105.005 40.8199 105.53 40.1534C106.054 39.4749 106.262 38.6829 106.155 37.7772C106.047 36.8716 105.66 36.1562 104.994 35.6311C104.326 35.0941 103.539 34.8794 102.633 34.9869C102.037 35.0576 101.511 35.259 101.055 35.5911C100.599 35.9232 100.263 36.3498 100.047 36.8709C99.8417 37.3787 99.7743 37.9305 99.845 38.5263C99.9525 39.4319 100.34 40.1532 101.008 40.6902ZM121.383 40.8636L118.071 37.0877L116.927 37.2235L117.415 41.3346L115.502 41.5617L115.014 37.4505L113.852 37.5885L111.534 42.0328L109.121 42.3192L112.093 36.8185L108.333 32.6246L110.603 32.3551L113.66 35.8168L114.804 35.681L114.356 31.9095L116.269 31.6824L116.717 35.4539L117.861 35.3181L120.005 31.2389L122.293 30.9673L119.618 35.9251L123.796 40.5771L121.383 40.8636ZM131.128 29.9184L132.236 29.7868L133.382 39.4391L131.488 39.664L130.76 33.533L126.34 40.2751L125.196 40.4109L124.05 30.7587L125.962 30.5316L126.684 36.609L131.128 29.9184ZM148.454 37.6498L146.542 37.8768L144.599 31.437L142.132 38.2916L141.721 38.3404L137.735 32.2518L137.354 38.9675L135.442 39.1946L136.03 29.3365L137.71 29.1371L141.534 34.9367L143.912 28.4007L145.575 28.2034L148.454 37.6498ZM45.3513 71.2022L49.7842 70.676L50.0006 72.4992L41.8677 73.4647L41.8062 72.9463C43.3511 70.7932 44.4603 69.1932 45.1336 68.1466C45.8174 67.0866 46.2606 66.2908 46.4634 65.7592C46.6661 65.2275 46.7385 64.7175 46.6805 64.2289C46.6395 63.8833 46.526 63.5886 46.3399 63.3449C46.1658 63.0997 45.9332 62.9219 45.6422 62.8114C45.3616 62.6876 45.0426 62.6469 44.6851 62.6894C44.125 62.7559 43.692 62.9765 43.3861 63.3511C43.0906 63.7125 42.974 64.1553 43.0362 64.6796L43.0681 64.9478L41.1376 65.1769L41.1058 64.9088C40.9785 63.8363 41.2215 62.9314 41.8348 62.1939C42.4467 61.4446 43.3187 61.0027 44.4508 60.8683C45.559 60.7367 46.4983 60.9636 47.2687 61.5489C48.0509 62.1327 48.5043 62.949 48.6288 63.9976C48.6939 64.5457 48.6556 65.088 48.5138 65.6245C48.384 66.1595 48.0693 66.8676 47.5696 67.7486C47.0805 68.6163 46.3411 69.7675 45.3513 71.2022ZM59.5787 67.193L59.7803 68.8911L58.6363 69.0269L58.9228 71.44L57.0638 71.6607L56.7774 69.2476L50.8609 69.95L50.8142 69.5567L53.7938 59.9948L55.76 59.7614L53.2154 67.9485L56.6115 67.5453L56.5407 64.2003L58.0422 64.0221L58.4347 67.3288L59.5787 67.193ZM71.7874 60.1245L73.7358 59.8932L74.8816 69.5454L72.9333 69.7767L72.4537 65.7371L67.9851 66.2676L68.4647 70.3072L66.4985 70.5406L65.3526 60.8884L67.3188 60.655L67.7687 64.4444L72.2373 63.9139L71.7874 60.1245ZM84.6384 58.5989L86.1756 58.4164L87.3214 68.0686L85.7127 68.2596L85.3761 67.1032C84.5583 68.155 83.4524 68.7636 82.0582 68.9291C80.6163 69.1003 79.3554 68.7606 78.2756 67.9099C77.2077 67.0579 76.5882 65.9109 76.417 64.469C76.2445 63.0152 76.5782 61.7551 77.4184 60.6886C78.269 59.6088 79.4153 58.9833 80.8571 58.8122C82.2752 58.6438 83.5055 58.9811 84.5482 59.8241L84.6384 58.5989ZM79.6001 66.3932C80.2785 66.9169 81.0706 67.125 81.9762 67.0174C82.8938 66.9085 83.6091 66.5215 84.1223 65.8563C84.646 65.1779 84.8541 64.3858 84.7466 63.4802C84.6376 62.5626 84.2499 61.8413 83.5833 61.3162C82.9287 60.7897 82.1426 60.5809 81.2251 60.6899C80.6292 60.7606 80.1033 60.962 79.6473 61.2941C79.2032 61.6247 78.8731 62.0506 78.657 62.5717C78.4395 63.0809 78.3661 63.6334 78.4369 64.2292C78.5444 65.1349 78.9321 65.8562 79.6001 66.3932ZM92.3137 55.4219L100.554 54.4437L100.588 54.7297L97.3533 66.8777L95.3156 67.1196L98.17 56.5031L92.5217 57.1736L92.3137 55.4219ZM102.05 66.3202L101.778 64.0323L103.959 63.7734L104.23 66.0613L102.05 66.3202Z" fill="#272727"></path> <path d="M127.808 3.09239C89.6163 -0.730591 11.0585 4.0426 2.36003 53.7192C-8.51312 115.815 192.338 95.7916 188.149 37.992C185.454 0.799988 113.056 12.4395 93.6141 15.1228" stroke="#D84B3B" stroke-width="3" stroke-linecap="round"></path> </svg> 