<?xml version="1.0" encoding="utf-8"?>
<svg viewBox="174.685 174.685 150.63 150.63" xmlns="http://www.w3.org/2000/svg">
  <ellipse style="stroke: rgb(0, 0, 0); stroke-opacity: 0; fill: rgb(34, 32, 32);" cx="250" cy="250" rx="75.315" ry="75.315"/>
  <path id="path6" style="fill: rgb(252, 185, 0); fill-rule: evenodd;" d="M 250.349 227.902 C 254.886 227.99 258.592 230.194 258.751 234.999 C 254.853 234.411 251.972 236.66 250.179 238.453 C 247.699 235.973 245.143 234.469 241.393 235.081 C 241.606 230.018 245.812 227.814 250.349 227.902 Z M 252.323 258.494 C 253.569 263.315 256.205 267.172 262.799 269.189 C 269.251 271.164 272.702 269.33 276.772 266.277 C 279.461 270.837 282.44 274 287.31 275.31 C 292.897 276.814 297.316 274.802 299.424 274.281 C 296.879 278.345 292.469 281.11 287.61 280.37 C 281.331 279.414 277.888 272.9 276.533 267.801 C 273.649 271.133 269.294 276.422 262.278 275.057 C 256.514 273.935 252.765 266.452 250.367 260.827 L 250.353 260.85 C 250.325 260.769 250.299 260.688 250.273 260.606 L 250.169 260.362 L 250.185 260.312 C 250.173 260.272 250.162 260.231 250.151 260.192 C 247.763 265.861 243.966 273.734 238.043 274.887 C 231.027 276.252 226.672 270.964 223.788 267.631 C 222.433 272.729 218.989 279.243 212.711 280.199 C 207.851 280.939 203.442 278.174 200.897 274.111 C 203.005 274.633 207.424 276.643 213.011 275.14 C 217.881 273.83 220.859 270.666 223.549 266.106 C 227.618 269.16 231.07 270.994 237.522 269.02 C 246.784 266.186 248.414 259.77 248.782 252.004 C 248.907 249.384 249.369 241.593 247.259 238.664 C 245.043 235.59 241.193 237.148 239.256 238.029 C 238.424 232.294 241.874 228.467 245.098 226.976 C 248.324 225.485 252.814 225.271 256.276 227.611 C 259.738 229.952 261.23 232.617 261.23 238.156 C 259.491 237.444 257.069 235.59 253.863 237.902 C 250.508 240.321 250.959 248.386 251.094 251.623 C 251.208 254.347 251.604 255.712 252.323 258.494 Z M 243.447 279.954 C 245.883 282.612 248.024 283.777 250.233 283.777 C 252.443 283.777 254.782 282.157 256.657 279.954 C 252.612 281.289 251.565 277.407 250.264 274.492 C 248.51 277.472 248.394 281.26 243.447 279.954 Z M 250 192.195 L 251.704 197.475 L 257.252 197.464 L 252.758 200.716 L 254.482 205.989 L 250 202.72 L 245.517 205.989 L 247.242 200.716 L 242.748 197.464 L 248.296 197.475 L 250 192.195 Z M 222.347 199.868 L 224.051 205.148 L 229.599 205.137 L 225.105 208.389 L 226.829 213.662 L 222.347 210.393 L 217.866 213.662 L 219.59 208.389 L 215.095 205.137 L 220.643 205.148 L 222.347 199.868 Z M 277.653 199.868 L 279.357 205.148 L 284.905 205.137 L 280.41 208.389 L 282.134 213.662 L 277.653 210.393 L 273.17 213.662 L 274.895 208.389 L 270.401 205.137 L 275.949 205.148 L 277.653 199.868 Z M 202.474 220.653 L 204.178 225.933 L 209.726 225.922 L 205.231 229.175 L 206.956 234.448 L 202.474 231.178 L 197.992 234.448 L 199.716 229.175 L 195.222 225.922 L 200.77 225.933 L 202.474 220.653 Z M 297.526 220.653 L 299.23 225.933 L 304.778 225.922 L 300.284 229.175 L 302.008 234.448 L 297.526 231.178 L 293.044 234.448 L 294.768 229.175 L 290.274 225.922 L 295.822 225.933 L 297.526 220.653 Z M 196.197 248.649 L 197.901 253.929 L 203.449 253.918 L 198.955 257.171 L 200.679 262.444 L 196.197 259.174 L 191.715 262.444 L 193.439 257.171 L 188.945 253.918 L 194.493 253.929 L 196.197 248.649 Z M 303.803 248.649 L 305.507 253.929 L 311.055 253.918 L 306.561 257.171 L 308.285 262.444 L 303.803 259.174 L 299.321 262.444 L 301.045 257.171 L 296.551 253.918 L 302.099 253.929 L 303.803 248.649 Z M 267.41 281.994 C 269.41 284.993 271.347 286.473 273.531 286.811 C 275.714 287.149 278.274 285.905 280.464 284.017 C 276.262 284.715 275.822 280.719 274.982 277.639 C 272.792 280.316 272.098 284.042 267.41 281.994 Z M 232.695 281.994 C 230.695 284.993 228.758 286.473 226.575 286.811 C 224.391 287.149 221.832 285.905 219.641 284.017 C 223.843 284.715 224.283 280.719 225.123 277.639 C 227.312 280.316 228.007 284.042 232.695 281.994 Z M 286.758 293.187 C 274.965 289.716 262.369 288.454 250.116 288.454 C 236.55 288.454 224.053 290.152 214.09 293.007 C 212.935 293.298 212.68 294.152 212.961 295.044 L 213.744 297.805 C 223.763 294.89 236.393 293.151 250.116 293.151 C 263.839 293.151 276.469 294.89 286.487 297.805 L 287.749 294.725 C 287.917 294.344 287.761 293.465 286.758 293.187 Z"/>
</svg>