<?xml version="1.0" encoding="UTF-8" standalone="no"?>
<svg
   xmlns:dc="http://purl.org/dc/elements/1.1/"
   xmlns:cc="http://creativecommons.org/ns#"
   xmlns:rdf="http://www.w3.org/1999/02/22-rdf-syntax-ns#"
   xmlns:svg="http://www.w3.org/2000/svg"
   xmlns="http://www.w3.org/2000/svg"
   viewBox="0 0 1683.7795 1190.5511"
   id="svg2"
   height="1190.5511"
   width="1683.7795"
   version="1.1">
  <metadata
     id="metadata12">
    <rdf:RDF>
      <cc:Work
         rdf:about="">
        <dc:format>image/svg+xml</dc:format>
        <dc:type
           rdf:resource="http://purl.org/dc/dcmitype/StillImage" />
      </cc:Work>
    </rdf:RDF>
  </metadata>
  <defs
     id="defs10" />
  <path
     id="path4"
     style="fill:#28336f;fill-rule:evenodd"
     d="m 720.0006,850.3237 c 0,-1.2779 -0.4459,-3.0345 0.003,-5.012 l 10.2016,-44.9883 c 1.2133,-5.3504 4.4802,-9.1894 10.5849,-9.1894 l 96.3408,0 c 2.3479,0 5.5956,1.8352 5.5956,3.9178 l 0,1.2855 c 0,0.7461 -0.0553,2.0747 -0.4283,3.7378 l -10.2498,45.6658 c -1.1503,5.1253 -4.8164,8.5558 -10.9812,8.5558 l -95.9258,0 c -2.3479,0 -5.1403,-1.8904 -5.1403,-3.973 z m 92.5259,36.5749 c 26.1746,0 45.129,-12.0153 55.3978,-28.0803 0.7299,-1.1421 2.0469,-3.7664 2.9154,-7.5592 l 12.1357,-52.9843 c 4.3535,-21.4061 -13.2917,-39.5306 -37.6792,-39.5306 l -97.4387,0 c -22.7784,0 -45.5797,13.29 -53.3526,28.1585 -4.5042,8.6165 -6.5554,20.7349 -8.945,31.5426 -1.7161,7.7618 -6.6818,27.0884 -6.6818,33.8065 l 0,4.4989 c 0,17.5155 21.772,30.1479 40.4801,30.1479 l 93.1683,0 z m 684.0451,-95.7175 97.7332,0.0144 c 2.1033,0 4.4977,2.4143 4.4977,5.1418 0,1.5313 -2.1146,11.1291 -2.6884,13.3784 -0.7333,2.8749 -5.0777,7.1878 -8.8772,7.1878 l -96.1898,-0.0972 5.5245,-25.6252 z m -60.9744,92.5631 3.8551,3.2133 36.182,0.0437 8.1533,-37.3201 41.1228,0 36.6247,37.2764 51.198,-0.1213 2.226,-3.8319 -34.1478,-33.3232 c 15.3516,0 33.8465,-9.0355 41.6061,-16.8693 4.8875,-4.934 9.7857,-9.669 12.3006,-16.6175 2.8951,-7.9986 5.207,-17.7426 5.207,-26.284 0,-10.1727 -8.4764,-19.4448 -14.6565,-23.9017 -7.8523,-5.6631 -18.2529,-7.5906 -31.6063,-7.5906 l -129.1507,0 -28.9143,125.3262 z M 245.4398,761.593 l -3.6825,-2.8488 -110.7071,0.003 c -32.1497,-0.003 -62.6944,17.8067 -63.1712,43.7664 -0.3079,16.759 4.6026,22.6324 18.1667,29.3888 8.4206,4.1941 20.0506,6.9086 32.3438,6.8978 l 39.0272,0 21.0254,-0.3799 c 5.6616,-0.1023 13.197,0.2985 13.197,7.4044 0,5.9006 -8.6607,8.4719 -14.9463,8.4719 l -114.8726,0 -6.5256,29.4205 4.8203,3.1814 106.9685,0 c 30.4117,0 67.606,-13.2319 67.606,-47.5008 0,-22.028 -27.1222,-32.9635 -48.8279,-32.9635 l -64.461,0 c -6.8819,0 -12.0912,-1.0962 -12.0064,-6.241 0,-5.6994 6.8252,-9.0593 12.0121,-9.0593 l 117.481,0 6.5526,-29.541 z m 44.5079,88.7307 c 0,-1.2779 -0.4459,-3.0345 0.002,-5.012 l 10.2016,-44.9883 c 1.2133,-5.3504 4.4802,-9.1894 10.5849,-9.1894 l 96.3408,0 c 2.3479,0 5.5956,1.8352 5.5956,3.9178 l 0,1.2855 c 0,0.7461 -0.0553,2.0747 -0.4283,3.7378 l -10.2498,45.6658 c -1.1503,5.1253 -4.8164,8.5558 -10.9811,8.5558 l -95.9259,0 c -2.3479,0 -5.1403,-1.8904 -5.1403,-3.973 z m 92.5259,36.5749 c 26.1746,0 45.129,-12.0153 55.3978,-28.0803 0.7299,-1.1421 2.0469,-3.7664 2.9154,-7.5592 l 12.1357,-52.9843 c 4.3535,-21.4061 -13.2916,-39.5306 -37.6792,-39.5306 l -97.4387,0 c -22.7784,0 -45.5797,13.29 -53.3526,28.1585 -4.5042,8.6165 -6.5554,20.7349 -8.945,31.5426 -1.7161,7.7618 -6.6818,27.0884 -6.6818,33.8065 l 0,4.4989 c 0,17.5155 21.7721,30.1479 40.4802,30.1479 l 93.1682,0 z m 900.7767,-95.8768 0.7073,-0.4689 12.8508,35.9909 -42.3878,0.0162 28.8297,-35.5382 z m -125.2304,92.0795 3.9084,3.7973 39.195,0 25.0058,-27.5772 85.4578,0 12.2615,27.5772 39.8376,0 3.1594,-3.1544 c -17.9399,-42.0636 -35.3474,-83.7616 -55.1023,-125 l -43.6927,0 -96.1512,108.6758 -13.8793,15.6813 z m 216.7314,0.6244 3.6751,3.1737 36.6247,0 c 8.9255,-42.0055 19.0962,-83.9231 28.1041,-125.9107 l -3.2125,-2.5707 -36.4578,0.0368 -28.7336,125.2709 z m -696.555,-123.3456 -3.7057,-1.9621 -36.6247,0 c -26.7665,31.9127 -53.2741,63.9198 -79.3361,96.4046 l -34.7017,-96.4046 -42.0996,0 -27.4488,125.8732 3.6463,2.6074 34.6969,0 13.9456,-64.8349 25.1376,64.8306 39.6743,0.0632 54.6159,-64.9125 -13.4932,62.3418 3.8552,2.5707 33.9905,-0.0142 27.8475,-126.5632 z m 385.1677,126.5774 29.0421,-124.0407 0.021,-1.2852 -3.1595,-3.2136 -36.6248,0 -19.9851,86.138 -78.3235,-86.138 -42.4077,0 -29.5362,125.3636 3.6323,3.1759 36.6248,0 19.4964,-84.1691 73.0295,84.1691 48.1904,0 z" />
  <path
     id="path6"
     style="fill:#fcb900;fill-rule:evenodd"
     d="m 851.743,297.1457 c 22.9521,0.4431 41.6979,11.5974 42.5035,35.9028 -19.7192,-2.9761 -34.2944,8.4027 -43.361,17.4713 -12.5456,-12.5467 -25.4778,-20.1521 -44.4458,-17.0555 1.0777,-25.6119 22.3509,-36.7617 45.3033,-36.3186 z m 9.9856,154.7558 c 6.3031,24.3924 19.6353,43.9004 52.9954,54.108 32.6392,9.9873 50.0967,0.7101 70.6873,-14.7356 13.6023,23.0669 28.6701,39.0707 53.3095,45.7001 28.2597,7.6037 50.6174,-2.5716 61.2773,-5.2101 -12.8729,20.56 -35.1796,34.5442 -59.7614,30.8024 -31.7636,-4.8353 -49.1811,-37.79 -56.0387,-63.5805 -14.5885,16.8582 -36.6154,43.6133 -72.1074,36.7055 -29.1597,-5.6755 -48.1255,-43.5279 -60.2583,-71.9869 l -0.0669,0.1205 c -0.14,-0.4114 -0.2761,-0.8227 -0.4068,-1.2345 l -0.5233,-1.2382 0.0746,-0.2523 c -0.0573,-0.203 -0.1131,-0.4056 -0.1673,-0.6086 -12.0821,28.6801 -31.2851,68.506 -61.2552,74.3392 -35.4921,6.9077 -57.519,-19.8474 -72.1075,-36.7056 -6.8575,25.7905 -24.275,58.7452 -56.0386,63.5805 -24.5818,3.7418 -46.8885,-10.2424 -59.7615,-30.8023 10.66,2.6384 33.0177,12.8137 61.2774,5.21 24.6393,-6.6294 39.7072,-22.6332 53.3095,-45.7001 20.5906,15.4457 38.0475,24.7229 70.6873,14.7356 46.8504,-14.3357 55.0995,-46.7898 56.9636,-86.0749 0.629,-13.2545 2.9665,-52.666 -7.7105,-67.4832 -11.2034,-15.5478 -30.6791,-7.6726 -40.4802,-3.2137 -4.2111,-29.0114 13.2432,-48.3712 29.5569,-55.9145 16.3136,-7.5433 39.0316,-8.6281 56.5438,3.2134 17.5121,11.8414 25.0588,25.3247 25.0588,53.344 -8.7993,-3.6014 -21.0475,-12.9787 -37.2673,-1.2855 -16.9711,12.2346 -14.6931,53.0368 -14.0077,69.4114 0.5765,13.7804 2.5806,20.6827 6.2172,34.7559 z M 816.8309,560.467 c 12.3222,13.4407 23.1483,19.3382 34.327,19.3382 11.1787,-3e-4 23.0111,-8.2006 32.4972,-19.3382 -20.465,6.7479 -25.7589,-12.8894 -32.3421,-27.6358 -8.8708,15.0783 -9.4592,34.2419 -34.4821,27.6358 z m 33.1464,-443.9503 8.6216,26.708 28.0649,-0.0538 -22.7367,16.4528 8.7237,26.6746 -22.6735,-16.5396 -22.6735,16.5396 8.7236,-26.6746 -22.7367,-16.4528 28.065,0.0538 8.6216,-26.708 z m -139.8869,38.8145 8.6215,26.708 28.065,-0.0538 -22.7367,16.4528 8.7236,26.6746 -22.6734,-16.5396 -22.6735,16.5396 8.7236,-26.6746 -22.7367,-16.4528 28.065,0.0538 8.6216,-26.708 z m 279.7738,0 8.6216,26.708 28.065,-0.0538 -22.7367,16.4528 8.7236,26.6746 -22.6735,-16.5396 -22.6735,16.5396 8.7237,-26.6746 -22.7367,-16.4528 28.0649,0.0538 8.6216,-26.708 z m -380.3079,105.1467 8.6215,26.708 28.065,-0.0539 -22.7367,16.4529 8.7236,26.6746 -22.6734,-16.5396 -22.6735,16.5396 8.7236,-26.6746 -22.7367,-16.4529 28.065,0.0539 8.6216,-26.708 z m 480.8423,0 8.6216,26.708 28.065,-0.0539 -22.7367,16.4529 8.7236,26.6746 -22.6735,-16.5396 -22.6735,16.5396 8.7237,-26.6746 -22.7367,-16.4529 28.0649,0.0539 8.6216,-26.708 z m -512.5958,141.6245 8.6216,26.7081 28.065,-0.0539 -22.7367,16.4528 8.7236,26.6746 -22.6735,-16.5396 -22.6734,16.5396 8.7236,-26.6746 -22.7367,-16.4528 28.065,0.0539 8.6215,-26.7081 z m 544.3489,0 8.6216,26.7081 28.065,-0.0539 -22.7367,16.4528 8.7236,26.6746 -22.6735,-16.5396 -22.6734,16.5396 8.7236,-26.6746 -22.7367,-16.4528 28.065,0.0539 8.6215,-26.7081 z m -184.1031,168.681 c 10.1191,15.1688 19.9145,22.6542 30.9614,24.3658 11.0469,1.7112 23.9953,-4.5808 35.0748,-14.1347 -21.2567,3.5351 -23.4817,-16.6813 -27.7297,-32.2617 -11.0746,13.5423 -14.5902,32.3901 -38.3065,22.0306 z m -175.6111,0 c -10.1191,15.169 -19.9145,22.6545 -30.9614,24.3658 -11.0469,1.7112 -23.9956,-4.5808 -35.0751,-14.1347 21.257,3.5351 23.4822,-16.6813 27.7299,-32.2617 11.0747,13.5423 14.5902,32.3901 38.3066,22.0306 z m 273.4852,56.6181 c -59.654,-17.5524 -123.3743,-23.9403 -185.3589,-23.9403 -68.624,0 -131.8419,8.5938 -182.2425,23.0349 -5.847,1.4664 -7.1371,5.7889 -5.7135,10.3042 l 3.9617,13.9643 c 50.6846,-14.7458 114.5732,-23.5403 183.9943,-23.5403 69.421,0 133.3097,8.7945 183.9946,23.5403 l 6.3813,-15.5775 c 0.8515,-1.927 0.06,-6.372 -5.017,-7.7856 z" />
</svg>
